<mxfile host="drawio-plugin" modified="2022-03-17T05:39:38.455Z" agent="5.0 (Windows NT 6.2; Win64; x64) AppleWebKit/537.36 (KHTML, like Gecko) Chrome/89.0.4389.114 Safari/537.36" etag="dQCbZkbOxPf3ZUmaxeKO" version="15.5.4" type="embed"><diagram id="C5RBs43oDa-KdzZeNtuy" name="Page-1"><mxGraphModel dx="4680" dy="954" grid="0" gridSize="10" guides="1" tooltips="1" connect="1" arrows="1" fold="1" page="0" pageScale="1" pageWidth="827" pageHeight="1169" background="#DAD2D8" math="0" shadow="0"><root><mxCell id="WIyWlLk6GJQsqaUBKTNV-0"/><mxCell id="WIyWlLk6GJQsqaUBKTNV-1" parent="WIyWlLk6GJQsqaUBKTNV-0"/><mxCell id="cKhNgOHziQ-rXU9oQnhB-3" value="Order" style="swimlane;fontStyle=1;align=center;verticalAlign=top;childLayout=stackLayout;horizontal=1;startSize=26;horizontalStack=0;resizeParent=1;resizeParentMax=0;resizeLast=0;collapsible=1;marginBottom=0;strokeColor=#0F8B8D;fillColor=#FAE5C7;fontColor=#143642;" parent="WIyWlLk6GJQsqaUBKTNV-1" vertex="1"><mxGeometry x="320" y="350" width="170" height="130" as="geometry"/></mxCell><mxCell id="cKhNgOHziQ-rXU9oQnhB-4" value="- date: int&#10;- status: int" style="text;strokeColor=#0F8B8D;fillColor=#FAE5C7;align=left;verticalAlign=top;spacingLeft=4;spacingRight=4;overflow=hidden;rotatable=0;points=[[0,0.5],[1,0.5]];portConstraint=eastwest;fontColor=#143642;" parent="cKhNgOHziQ-rXU9oQnhB-3" vertex="1"><mxGeometry y="26" width="170" height="44" as="geometry"/></mxCell><mxCell id="cKhNgOHziQ-rXU9oQnhB-5" value="" style="line;strokeWidth=1;fillColor=none;align=left;verticalAlign=middle;spacingTop=-1;spacingLeft=3;spacingRight=3;rotatable=0;labelPosition=right;points=[];portConstraint=eastwest;labelBackgroundColor=#DAD2D8;strokeColor=#0F8B8D;fontColor=#143642;" parent="cKhNgOHziQ-rXU9oQnhB-3" vertex="1"><mxGeometry y="70" width="170" height="8" as="geometry"/></mxCell><mxCell id="cKhNgOHziQ-rXU9oQnhB-6" value="+ calculateTotal(): double&#10;+ calculateTax(): double&#10;+ calculateSubTotal(): double" style="text;strokeColor=#0F8B8D;fillColor=#FAE5C7;align=left;verticalAlign=top;spacingLeft=4;spacingRight=4;overflow=hidden;rotatable=0;points=[[0,0.5],[1,0.5]];portConstraint=eastwest;fontColor=#143642;" parent="cKhNgOHziQ-rXU9oQnhB-3" vertex="1"><mxGeometry y="78" width="170" height="52" as="geometry"/></mxCell><mxCell id="cKhNgOHziQ-rXU9oQnhB-12" style="edgeStyle=orthogonalEdgeStyle;rounded=0;orthogonalLoop=1;jettySize=auto;html=1;exitX=0.5;exitY=0;exitDx=0;exitDy=0;entryX=0.5;entryY=1;entryDx=0;entryDy=0;endArrow=block;endFill=0;labelBackgroundColor=#DAD2D8;strokeColor=#A8201A;fontColor=#143642;" parent="WIyWlLk6GJQsqaUBKTNV-1" source="cKhNgOHziQ-rXU9oQnhB-8" target="cKhNgOHziQ-rXU9oQnhB-3" edge="1"><mxGeometry relative="1" as="geometry"/></mxCell><mxCell id="cKhNgOHziQ-rXU9oQnhB-8" value="OrderItems" style="swimlane;fontStyle=1;align=center;verticalAlign=top;childLayout=stackLayout;horizontal=1;startSize=26;horizontalStack=0;resizeParent=1;resizeParentMax=0;resizeLast=0;collapsible=1;marginBottom=0;strokeColor=#0F8B8D;fillColor=#FAE5C7;fontColor=#143642;" parent="WIyWlLk6GJQsqaUBKTNV-1" vertex="1"><mxGeometry x="320" y="520" width="170" height="120" as="geometry"/></mxCell><mxCell id="cKhNgOHziQ-rXU9oQnhB-9" value="- listOfItems: String" style="text;strokeColor=#0F8B8D;fillColor=#FAE5C7;align=left;verticalAlign=top;spacingLeft=4;spacingRight=4;overflow=hidden;rotatable=0;points=[[0,0.5],[1,0.5]];portConstraint=eastwest;fontColor=#143642;" parent="cKhNgOHziQ-rXU9oQnhB-8" vertex="1"><mxGeometry y="26" width="170" height="34" as="geometry"/></mxCell><mxCell id="cKhNgOHziQ-rXU9oQnhB-10" value="" style="line;strokeWidth=1;fillColor=none;align=left;verticalAlign=middle;spacingTop=-1;spacingLeft=3;spacingRight=3;rotatable=0;labelPosition=right;points=[];portConstraint=eastwest;labelBackgroundColor=#DAD2D8;strokeColor=#0F8B8D;fontColor=#143642;" parent="cKhNgOHziQ-rXU9oQnhB-8" vertex="1"><mxGeometry y="60" width="170" height="8" as="geometry"/></mxCell><mxCell id="cKhNgOHziQ-rXU9oQnhB-11" value="+ calculateQuantity(): int" style="text;strokeColor=#0F8B8D;fillColor=#FAE5C7;align=left;verticalAlign=top;spacingLeft=4;spacingRight=4;overflow=hidden;rotatable=0;points=[[0,0.5],[1,0.5]];portConstraint=eastwest;fontColor=#143642;" parent="cKhNgOHziQ-rXU9oQnhB-8" vertex="1"><mxGeometry y="68" width="170" height="52" as="geometry"/></mxCell><mxCell id="cKhNgOHziQ-rXU9oQnhB-17" style="edgeStyle=orthogonalEdgeStyle;rounded=0;orthogonalLoop=1;jettySize=auto;html=1;exitX=0.5;exitY=0;exitDx=0;exitDy=0;endArrow=block;endFill=0;labelBackgroundColor=#DAD2D8;strokeColor=#A8201A;fontColor=#143642;" parent="WIyWlLk6GJQsqaUBKTNV-1" edge="1"><mxGeometry relative="1" as="geometry"><mxPoint x="401" y="691" as="sourcePoint"/><mxPoint x="401" y="640" as="targetPoint"/><Array as="points"><mxPoint x="401" y="701"/><mxPoint x="401" y="701"/></Array></mxGeometry></mxCell><mxCell id="cKhNgOHziQ-rXU9oQnhB-13" value="MenuItem" style="swimlane;fontStyle=1;align=center;verticalAlign=top;childLayout=stackLayout;horizontal=1;startSize=26;horizontalStack=0;resizeParent=1;resizeParentMax=0;resizeLast=0;collapsible=1;marginBottom=0;strokeColor=#0F8B8D;fillColor=#FAE5C7;fontColor=#143642;" parent="WIyWlLk6GJQsqaUBKTNV-1" vertex="1"><mxGeometry x="320" y="680" width="170" height="130" as="geometry"/></mxCell><mxCell id="cKhNgOHziQ-rXU9oQnhB-14" value="- nameOfItem: String&#10;- priceOfItem: double" style="text;strokeColor=#0F8B8D;fillColor=#FAE5C7;align=left;verticalAlign=top;spacingLeft=4;spacingRight=4;overflow=hidden;rotatable=0;points=[[0,0.5],[1,0.5]];portConstraint=eastwest;fontColor=#143642;" parent="cKhNgOHziQ-rXU9oQnhB-13" vertex="1"><mxGeometry y="26" width="170" height="44" as="geometry"/></mxCell><mxCell id="cKhNgOHziQ-rXU9oQnhB-15" value="" style="line;strokeWidth=1;fillColor=none;align=left;verticalAlign=middle;spacingTop=-1;spacingLeft=3;spacingRight=3;rotatable=0;labelPosition=right;points=[];portConstraint=eastwest;labelBackgroundColor=#DAD2D8;strokeColor=#0F8B8D;fontColor=#143642;" parent="cKhNgOHziQ-rXU9oQnhB-13" vertex="1"><mxGeometry y="70" width="170" height="8" as="geometry"/></mxCell><mxCell id="cKhNgOHziQ-rXU9oQnhB-16" value="+getName(): String&#10;+getCost(): double" style="text;strokeColor=#0F8B8D;fillColor=#FAE5C7;align=left;verticalAlign=top;spacingLeft=4;spacingRight=4;overflow=hidden;rotatable=0;points=[[0,0.5],[1,0.5]];portConstraint=eastwest;fontColor=#143642;" parent="cKhNgOHziQ-rXU9oQnhB-13" vertex="1"><mxGeometry y="78" width="170" height="52" as="geometry"/></mxCell><mxCell id="1" style="edgeStyle=orthogonalEdgeStyle;curved=0;rounded=1;sketch=0;orthogonalLoop=1;jettySize=auto;html=1;exitX=0.5;exitY=0;exitDx=0;exitDy=0;fontColor=#143642;strokeColor=#A8201A;fillColor=#FAE5C7;endArrow=none;endFill=0;" parent="WIyWlLk6GJQsqaUBKTNV-1" source="cKhNgOHziQ-rXU9oQnhB-59" edge="1"><mxGeometry relative="1" as="geometry"><mxPoint x="-318" y="746.6666870117188" as="targetPoint"/><Array as="points"><mxPoint x="-325" y="747"/></Array></mxGeometry></mxCell><mxCell id="cKhNgOHziQ-rXU9oQnhB-59" value="Cheese" style="swimlane;fontStyle=3;align=center;verticalAlign=top;childLayout=stackLayout;horizontal=1;startSize=26;horizontalStack=0;resizeParent=1;resizeParentMax=0;resizeLast=0;collapsible=1;marginBottom=0;strokeColor=#0F8B8D;fillColor=#FAE5C7;fontColor=#143642;" parent="WIyWlLk6GJQsqaUBKTNV-1" vertex="1"><mxGeometry x="-410" y="880" width="170" height="130" as="geometry"/></mxCell><mxCell id="cKhNgOHziQ-rXU9oQnhB-60" value="- name: int&#10;- cost: double" style="text;strokeColor=#0F8B8D;fillColor=#FAE5C7;align=left;verticalAlign=top;spacingLeft=4;spacingRight=4;overflow=hidden;rotatable=0;points=[[0,0.5],[1,0.5]];portConstraint=eastwest;fontColor=#143642;" parent="cKhNgOHziQ-rXU9oQnhB-59" vertex="1"><mxGeometry y="26" width="170" height="44" as="geometry"/></mxCell><mxCell id="cKhNgOHziQ-rXU9oQnhB-61" value="" style="line;strokeWidth=1;fillColor=none;align=left;verticalAlign=middle;spacingTop=-1;spacingLeft=3;spacingRight=3;rotatable=0;labelPosition=right;points=[];portConstraint=eastwest;labelBackgroundColor=#DAD2D8;strokeColor=#0F8B8D;fontColor=#143642;" parent="cKhNgOHziQ-rXU9oQnhB-59" vertex="1"><mxGeometry y="70" width="170" height="8" as="geometry"/></mxCell><mxCell id="cKhNgOHziQ-rXU9oQnhB-62" value="+getName(): String&#10;+getCost(): double" style="text;strokeColor=#0F8B8D;fillColor=#FAE5C7;align=left;verticalAlign=top;spacingLeft=4;spacingRight=4;overflow=hidden;rotatable=0;points=[[0,0.5],[1,0.5]];portConstraint=eastwest;fontColor=#143642;" parent="cKhNgOHziQ-rXU9oQnhB-59" vertex="1"><mxGeometry y="78" width="170" height="52" as="geometry"/></mxCell><mxCell id="cKhNgOHziQ-rXU9oQnhB-63" style="edgeStyle=orthogonalEdgeStyle;rounded=0;orthogonalLoop=1;jettySize=auto;html=1;exitX=0.5;exitY=0;exitDx=0;exitDy=0;endArrow=block;endFill=0;labelBackgroundColor=#DAD2D8;strokeColor=#A8201A;fontColor=#143642;" parent="WIyWlLk6GJQsqaUBKTNV-1" source="cKhNgOHziQ-rXU9oQnhB-64" edge="1"><mxGeometry relative="1" as="geometry"><mxPoint x="-320" y="1010" as="targetPoint"/><Array as="points"><mxPoint x="-605" y="1060"/><mxPoint x="-320" y="1060"/><mxPoint x="-320" y="1030"/></Array></mxGeometry></mxCell><mxCell id="cKhNgOHziQ-rXU9oQnhB-64" value="HardCheese" style="swimlane;fontStyle=3;align=center;verticalAlign=top;childLayout=stackLayout;horizontal=1;startSize=26;horizontalStack=0;resizeParent=1;resizeParentMax=0;resizeLast=0;collapsible=1;marginBottom=0;strokeColor=#0F8B8D;fillColor=#FAE5C7;fontColor=#143642;" parent="WIyWlLk6GJQsqaUBKTNV-1" vertex="1"><mxGeometry x="-690" y="1090" width="170" height="150" as="geometry"/></mxCell><mxCell id="cKhNgOHziQ-rXU9oQnhB-65" value="-NameOfHardCheese:String&#10;-CostOfHardCheese: double" style="text;strokeColor=#0F8B8D;fillColor=#FAE5C7;align=left;verticalAlign=top;spacingLeft=4;spacingRight=4;overflow=hidden;rotatable=0;points=[[0,0.5],[1,0.5]];portConstraint=eastwest;fontColor=#143642;" parent="cKhNgOHziQ-rXU9oQnhB-64" vertex="1"><mxGeometry y="26" width="170" height="64" as="geometry"/></mxCell><mxCell id="cKhNgOHziQ-rXU9oQnhB-66" value="" style="line;strokeWidth=1;fillColor=none;align=left;verticalAlign=middle;spacingTop=-1;spacingLeft=3;spacingRight=3;rotatable=0;labelPosition=right;points=[];portConstraint=eastwest;labelBackgroundColor=#DAD2D8;strokeColor=#0F8B8D;fontColor=#143642;" parent="cKhNgOHziQ-rXU9oQnhB-64" vertex="1"><mxGeometry y="90" width="170" height="8" as="geometry"/></mxCell><mxCell id="cKhNgOHziQ-rXU9oQnhB-67" value="+getName(): String&#10;+getCost(): double" style="text;strokeColor=#0F8B8D;fillColor=#FAE5C7;align=left;verticalAlign=top;spacingLeft=4;spacingRight=4;overflow=hidden;rotatable=0;points=[[0,0.5],[1,0.5]];portConstraint=eastwest;fontColor=#143642;" parent="cKhNgOHziQ-rXU9oQnhB-64" vertex="1"><mxGeometry y="98" width="170" height="52" as="geometry"/></mxCell><mxCell id="cKhNgOHziQ-rXU9oQnhB-68" style="edgeStyle=orthogonalEdgeStyle;rounded=0;orthogonalLoop=1;jettySize=auto;html=1;exitX=0.5;exitY=0;exitDx=0;exitDy=0;endArrow=block;endFill=0;labelBackgroundColor=#DAD2D8;strokeColor=#A8201A;fontColor=#143642;" parent="WIyWlLk6GJQsqaUBKTNV-1" source="cKhNgOHziQ-rXU9oQnhB-69" edge="1"><mxGeometry relative="1" as="geometry"><mxPoint x="-320" y="1010" as="targetPoint"/><mxPoint x="160" y="1079" as="sourcePoint"/><Array as="points"><mxPoint x="75" y="1059"/><mxPoint x="-320" y="1059"/><mxPoint x="-320" y="1030"/></Array></mxGeometry></mxCell><mxCell id="cKhNgOHziQ-rXU9oQnhB-69" value="SoftCheese" style="swimlane;fontStyle=3;align=center;verticalAlign=top;childLayout=stackLayout;horizontal=1;startSize=26;horizontalStack=0;resizeParent=1;resizeParentMax=0;resizeLast=0;collapsible=1;marginBottom=0;strokeColor=#0F8B8D;fillColor=#FAE5C7;fontColor=#143642;" parent="WIyWlLk6GJQsqaUBKTNV-1" vertex="1"><mxGeometry x="-10" y="1070" width="170" height="160" as="geometry"/></mxCell><mxCell id="cKhNgOHziQ-rXU9oQnhB-70" value="-NameOfSoftCheese:String&#10;-CostOfSoftCheese: double" style="text;strokeColor=#0F8B8D;fillColor=#FAE5C7;align=left;verticalAlign=top;spacingLeft=4;spacingRight=4;overflow=hidden;rotatable=0;points=[[0,0.5],[1,0.5]];portConstraint=eastwest;fontColor=#143642;" parent="cKhNgOHziQ-rXU9oQnhB-69" vertex="1"><mxGeometry y="26" width="170" height="74" as="geometry"/></mxCell><mxCell id="cKhNgOHziQ-rXU9oQnhB-71" value="" style="line;strokeWidth=1;fillColor=none;align=left;verticalAlign=middle;spacingTop=-1;spacingLeft=3;spacingRight=3;rotatable=0;labelPosition=right;points=[];portConstraint=eastwest;labelBackgroundColor=#DAD2D8;strokeColor=#0F8B8D;fontColor=#143642;" parent="cKhNgOHziQ-rXU9oQnhB-69" vertex="1"><mxGeometry y="100" width="170" height="8" as="geometry"/></mxCell><mxCell id="cKhNgOHziQ-rXU9oQnhB-72" value="+getName(): String&#10;+getCost(): double" style="text;strokeColor=#0F8B8D;fillColor=#FAE5C7;align=left;verticalAlign=top;spacingLeft=4;spacingRight=4;overflow=hidden;rotatable=0;points=[[0,0.5],[1,0.5]];portConstraint=eastwest;fontColor=#143642;" parent="cKhNgOHziQ-rXU9oQnhB-69" vertex="1"><mxGeometry y="108" width="170" height="52" as="geometry"/></mxCell><mxCell id="cKhNgOHziQ-rXU9oQnhB-73" style="edgeStyle=orthogonalEdgeStyle;rounded=0;orthogonalLoop=1;jettySize=auto;html=1;exitX=0.5;exitY=0;exitDx=0;exitDy=0;endArrow=block;endFill=0;labelBackgroundColor=#DAD2D8;strokeColor=#A8201A;fontColor=#143642;" parent="WIyWlLk6GJQsqaUBKTNV-1" source="cKhNgOHziQ-rXU9oQnhB-74" edge="1"><mxGeometry relative="1" as="geometry"><mxPoint x="70" y="1232" as="targetPoint"/></mxGeometry></mxCell><mxCell id="cKhNgOHziQ-rXU9oQnhB-74" value="Brie" style="swimlane;fontStyle=1;align=center;verticalAlign=top;childLayout=stackLayout;horizontal=1;startSize=26;horizontalStack=0;resizeParent=1;resizeParentMax=0;resizeLast=0;collapsible=1;marginBottom=0;strokeColor=#0F8B8D;fillColor=#FAE5C7;fontColor=#143642;" parent="WIyWlLk6GJQsqaUBKTNV-1" vertex="1"><mxGeometry x="-220" y="1342" width="170" height="170" as="geometry"/></mxCell><mxCell id="cKhNgOHziQ-rXU9oQnhB-75" value="-NameOfBrie:String&#10;-CostOfBrie: double" style="text;strokeColor=#0F8B8D;fillColor=#FAE5C7;align=left;verticalAlign=top;spacingLeft=4;spacingRight=4;overflow=hidden;rotatable=0;points=[[0,0.5],[1,0.5]];portConstraint=eastwest;fontColor=#143642;" parent="cKhNgOHziQ-rXU9oQnhB-74" vertex="1"><mxGeometry y="26" width="170" height="84" as="geometry"/></mxCell><mxCell id="cKhNgOHziQ-rXU9oQnhB-76" value="" style="line;strokeWidth=1;fillColor=none;align=left;verticalAlign=middle;spacingTop=-1;spacingLeft=3;spacingRight=3;rotatable=0;labelPosition=right;points=[];portConstraint=eastwest;labelBackgroundColor=#DAD2D8;strokeColor=#0F8B8D;fontColor=#143642;" parent="cKhNgOHziQ-rXU9oQnhB-74" vertex="1"><mxGeometry y="110" width="170" height="8" as="geometry"/></mxCell><mxCell id="cKhNgOHziQ-rXU9oQnhB-77" value="+getName(): String&#10;+getCost(): double" style="text;strokeColor=#0F8B8D;fillColor=#FAE5C7;align=left;verticalAlign=top;spacingLeft=4;spacingRight=4;overflow=hidden;rotatable=0;points=[[0,0.5],[1,0.5]];portConstraint=eastwest;fontColor=#143642;" parent="cKhNgOHziQ-rXU9oQnhB-74" vertex="1"><mxGeometry y="118" width="170" height="52" as="geometry"/></mxCell><mxCell id="cKhNgOHziQ-rXU9oQnhB-78" style="edgeStyle=orthogonalEdgeStyle;rounded=0;orthogonalLoop=1;jettySize=auto;html=1;exitX=0.5;exitY=0;exitDx=0;exitDy=0;endArrow=block;endFill=0;labelBackgroundColor=#DAD2D8;strokeColor=#A8201A;fontColor=#143642;" parent="WIyWlLk6GJQsqaUBKTNV-1" source="cKhNgOHziQ-rXU9oQnhB-79" edge="1"><mxGeometry relative="1" as="geometry"><mxPoint x="70" y="1232" as="targetPoint"/></mxGeometry></mxCell><mxCell id="cKhNgOHziQ-rXU9oQnhB-79" value="GoatCheese" style="swimlane;fontStyle=1;align=center;verticalAlign=top;childLayout=stackLayout;horizontal=1;startSize=26;horizontalStack=0;resizeParent=1;resizeParentMax=0;resizeLast=0;collapsible=1;marginBottom=0;strokeColor=#0F8B8D;fillColor=#FAE5C7;fontColor=#143642;" parent="WIyWlLk6GJQsqaUBKTNV-1" vertex="1"><mxGeometry x="-40" y="1342" width="170" height="170" as="geometry"/></mxCell><mxCell id="cKhNgOHziQ-rXU9oQnhB-80" value="-NameOfGoatCheese:String&#10;-CostOfGoatCheese: double" style="text;strokeColor=#0F8B8D;fillColor=#FAE5C7;align=left;verticalAlign=top;spacingLeft=4;spacingRight=4;overflow=hidden;rotatable=0;points=[[0,0.5],[1,0.5]];portConstraint=eastwest;fontColor=#143642;" parent="cKhNgOHziQ-rXU9oQnhB-79" vertex="1"><mxGeometry y="26" width="170" height="84" as="geometry"/></mxCell><mxCell id="cKhNgOHziQ-rXU9oQnhB-81" value="" style="line;strokeWidth=1;fillColor=none;align=left;verticalAlign=middle;spacingTop=-1;spacingLeft=3;spacingRight=3;rotatable=0;labelPosition=right;points=[];portConstraint=eastwest;labelBackgroundColor=#DAD2D8;strokeColor=#0F8B8D;fontColor=#143642;" parent="cKhNgOHziQ-rXU9oQnhB-79" vertex="1"><mxGeometry y="110" width="170" height="8" as="geometry"/></mxCell><mxCell id="cKhNgOHziQ-rXU9oQnhB-82" value="+getName(): String&#10;+getCost(): double" style="text;strokeColor=#0F8B8D;fillColor=#FAE5C7;align=left;verticalAlign=top;spacingLeft=4;spacingRight=4;overflow=hidden;rotatable=0;points=[[0,0.5],[1,0.5]];portConstraint=eastwest;fontColor=#143642;" parent="cKhNgOHziQ-rXU9oQnhB-79" vertex="1"><mxGeometry y="118" width="170" height="52" as="geometry"/></mxCell><mxCell id="cKhNgOHziQ-rXU9oQnhB-83" style="edgeStyle=orthogonalEdgeStyle;rounded=0;orthogonalLoop=1;jettySize=auto;html=1;exitX=0.5;exitY=0;exitDx=0;exitDy=0;endArrow=block;endFill=0;labelBackgroundColor=#DAD2D8;strokeColor=#A8201A;fontColor=#143642;" parent="WIyWlLk6GJQsqaUBKTNV-1" source="cKhNgOHziQ-rXU9oQnhB-84" edge="1"><mxGeometry relative="1" as="geometry"><mxPoint x="70" y="1232" as="targetPoint"/></mxGeometry></mxCell><mxCell id="cKhNgOHziQ-rXU9oQnhB-84" value="Havarti" style="swimlane;fontStyle=1;align=center;verticalAlign=top;childLayout=stackLayout;horizontal=1;startSize=26;horizontalStack=0;resizeParent=1;resizeParentMax=0;resizeLast=0;collapsible=1;marginBottom=0;strokeColor=#0F8B8D;fillColor=#FAE5C7;fontColor=#143642;" parent="WIyWlLk6GJQsqaUBKTNV-1" vertex="1"><mxGeometry x="140" y="1342" width="170" height="170" as="geometry"/></mxCell><mxCell id="cKhNgOHziQ-rXU9oQnhB-85" value="-NameOfHavarti:String&#10;-CostOfHavarti: double" style="text;strokeColor=#0F8B8D;fillColor=#FAE5C7;align=left;verticalAlign=top;spacingLeft=4;spacingRight=4;overflow=hidden;rotatable=0;points=[[0,0.5],[1,0.5]];portConstraint=eastwest;fontColor=#143642;" parent="cKhNgOHziQ-rXU9oQnhB-84" vertex="1"><mxGeometry y="26" width="170" height="84" as="geometry"/></mxCell><mxCell id="cKhNgOHziQ-rXU9oQnhB-86" value="" style="line;strokeWidth=1;fillColor=none;align=left;verticalAlign=middle;spacingTop=-1;spacingLeft=3;spacingRight=3;rotatable=0;labelPosition=right;points=[];portConstraint=eastwest;labelBackgroundColor=#DAD2D8;strokeColor=#0F8B8D;fontColor=#143642;" parent="cKhNgOHziQ-rXU9oQnhB-84" vertex="1"><mxGeometry y="110" width="170" height="8" as="geometry"/></mxCell><mxCell id="cKhNgOHziQ-rXU9oQnhB-87" value="+getName(): String&#10;+getCost(): double" style="text;strokeColor=#0F8B8D;fillColor=#FAE5C7;align=left;verticalAlign=top;spacingLeft=4;spacingRight=4;overflow=hidden;rotatable=0;points=[[0,0.5],[1,0.5]];portConstraint=eastwest;fontColor=#143642;" parent="cKhNgOHziQ-rXU9oQnhB-84" vertex="1"><mxGeometry y="118" width="170" height="52" as="geometry"/></mxCell><mxCell id="cKhNgOHziQ-rXU9oQnhB-88" style="edgeStyle=orthogonalEdgeStyle;rounded=0;orthogonalLoop=1;jettySize=auto;html=1;exitX=0.5;exitY=0;exitDx=0;exitDy=0;endArrow=block;endFill=0;labelBackgroundColor=#DAD2D8;strokeColor=#A8201A;fontColor=#143642;" parent="WIyWlLk6GJQsqaUBKTNV-1" source="cKhNgOHziQ-rXU9oQnhB-89" edge="1"><mxGeometry relative="1" as="geometry"><mxPoint x="70" y="1232" as="targetPoint"/></mxGeometry></mxCell><mxCell id="cKhNgOHziQ-rXU9oQnhB-89" value="BleuCheese" style="swimlane;fontStyle=1;align=center;verticalAlign=top;childLayout=stackLayout;horizontal=1;startSize=26;horizontalStack=0;resizeParent=1;resizeParentMax=0;resizeLast=0;collapsible=1;marginBottom=0;strokeColor=#0F8B8D;fillColor=#FAE5C7;fontColor=#143642;" parent="WIyWlLk6GJQsqaUBKTNV-1" vertex="1"><mxGeometry x="320" y="1342" width="170" height="170" as="geometry"/></mxCell><mxCell id="cKhNgOHziQ-rXU9oQnhB-90" value="-NameOfBleuCheese:String&#10;-CostOfBleuCheese: double" style="text;strokeColor=#0F8B8D;fillColor=#FAE5C7;align=left;verticalAlign=top;spacingLeft=4;spacingRight=4;overflow=hidden;rotatable=0;points=[[0,0.5],[1,0.5]];portConstraint=eastwest;fontColor=#143642;" parent="cKhNgOHziQ-rXU9oQnhB-89" vertex="1"><mxGeometry y="26" width="170" height="84" as="geometry"/></mxCell><mxCell id="cKhNgOHziQ-rXU9oQnhB-91" value="" style="line;strokeWidth=1;fillColor=none;align=left;verticalAlign=middle;spacingTop=-1;spacingLeft=3;spacingRight=3;rotatable=0;labelPosition=right;points=[];portConstraint=eastwest;labelBackgroundColor=#DAD2D8;strokeColor=#0F8B8D;fontColor=#143642;" parent="cKhNgOHziQ-rXU9oQnhB-89" vertex="1"><mxGeometry y="110" width="170" height="8" as="geometry"/></mxCell><mxCell id="cKhNgOHziQ-rXU9oQnhB-92" value="+getName(): String&#10;+getCost(): double" style="text;strokeColor=#0F8B8D;fillColor=#FAE5C7;align=left;verticalAlign=top;spacingLeft=4;spacingRight=4;overflow=hidden;rotatable=0;points=[[0,0.5],[1,0.5]];portConstraint=eastwest;fontColor=#143642;" parent="cKhNgOHziQ-rXU9oQnhB-89" vertex="1"><mxGeometry y="118" width="170" height="52" as="geometry"/></mxCell><mxCell id="cKhNgOHziQ-rXU9oQnhB-121" style="edgeStyle=orthogonalEdgeStyle;rounded=0;orthogonalLoop=1;jettySize=auto;html=1;exitX=0.5;exitY=0;exitDx=0;exitDy=0;entryX=0.5;entryY=1;entryDx=0;entryDy=0;endArrow=block;endFill=0;labelBackgroundColor=#DAD2D8;strokeColor=#A8201A;fontColor=#143642;" parent="WIyWlLk6GJQsqaUBKTNV-1" source="cKhNgOHziQ-rXU9oQnhB-93" target="cKhNgOHziQ-rXU9oQnhB-64" edge="1"><mxGeometry relative="1" as="geometry"/></mxCell><mxCell id="cKhNgOHziQ-rXU9oQnhB-93" value="Cheddar" style="swimlane;fontStyle=1;align=center;verticalAlign=top;childLayout=stackLayout;horizontal=1;startSize=26;horizontalStack=0;resizeParent=1;resizeParentMax=0;resizeLast=0;collapsible=1;marginBottom=0;strokeColor=#0F8B8D;fillColor=#FAE5C7;fontColor=#143642;" parent="WIyWlLk6GJQsqaUBKTNV-1" vertex="1"><mxGeometry x="-990" y="1340" width="170" height="170" as="geometry"/></mxCell><mxCell id="cKhNgOHziQ-rXU9oQnhB-94" value="-NameOfCheddat:String&#10;-CostOfCheddar: double" style="text;strokeColor=#0F8B8D;fillColor=#FAE5C7;align=left;verticalAlign=top;spacingLeft=4;spacingRight=4;overflow=hidden;rotatable=0;points=[[0,0.5],[1,0.5]];portConstraint=eastwest;fontColor=#143642;" parent="cKhNgOHziQ-rXU9oQnhB-93" vertex="1"><mxGeometry y="26" width="170" height="84" as="geometry"/></mxCell><mxCell id="cKhNgOHziQ-rXU9oQnhB-95" value="" style="line;strokeWidth=1;fillColor=none;align=left;verticalAlign=middle;spacingTop=-1;spacingLeft=3;spacingRight=3;rotatable=0;labelPosition=right;points=[];portConstraint=eastwest;labelBackgroundColor=#DAD2D8;strokeColor=#0F8B8D;fontColor=#143642;" parent="cKhNgOHziQ-rXU9oQnhB-93" vertex="1"><mxGeometry y="110" width="170" height="8" as="geometry"/></mxCell><mxCell id="cKhNgOHziQ-rXU9oQnhB-96" value="+getName(): String&#10;+getCost(): double" style="text;strokeColor=#0F8B8D;fillColor=#FAE5C7;align=left;verticalAlign=top;spacingLeft=4;spacingRight=4;overflow=hidden;rotatable=0;points=[[0,0.5],[1,0.5]];portConstraint=eastwest;fontColor=#143642;" parent="cKhNgOHziQ-rXU9oQnhB-93" vertex="1"><mxGeometry y="118" width="170" height="52" as="geometry"/></mxCell><mxCell id="cKhNgOHziQ-rXU9oQnhB-122" style="edgeStyle=orthogonalEdgeStyle;rounded=0;orthogonalLoop=1;jettySize=auto;html=1;exitX=0.5;exitY=0;exitDx=0;exitDy=0;endArrow=none;endFill=0;labelBackgroundColor=#DAD2D8;strokeColor=#A8201A;fontColor=#143642;" parent="WIyWlLk6GJQsqaUBKTNV-1" source="cKhNgOHziQ-rXU9oQnhB-97" edge="1"><mxGeometry relative="1" as="geometry"><mxPoint x="-725" y="1290" as="targetPoint"/></mxGeometry></mxCell><mxCell id="cKhNgOHziQ-rXU9oQnhB-97" value="Manchego" style="swimlane;fontStyle=1;align=center;verticalAlign=top;childLayout=stackLayout;horizontal=1;startSize=26;horizontalStack=0;resizeParent=1;resizeParentMax=0;resizeLast=0;collapsible=1;marginBottom=0;strokeColor=#0F8B8D;fillColor=#FAE5C7;fontColor=#143642;" parent="WIyWlLk6GJQsqaUBKTNV-1" vertex="1"><mxGeometry x="-810" y="1340" width="170" height="170" as="geometry"/></mxCell><mxCell id="cKhNgOHziQ-rXU9oQnhB-98" value="-NameOfManchego:String&#10;-CostOfManchego: double" style="text;strokeColor=#0F8B8D;fillColor=#FAE5C7;align=left;verticalAlign=top;spacingLeft=4;spacingRight=4;overflow=hidden;rotatable=0;points=[[0,0.5],[1,0.5]];portConstraint=eastwest;fontColor=#143642;" parent="cKhNgOHziQ-rXU9oQnhB-97" vertex="1"><mxGeometry y="26" width="170" height="84" as="geometry"/></mxCell><mxCell id="cKhNgOHziQ-rXU9oQnhB-99" value="" style="line;strokeWidth=1;fillColor=none;align=left;verticalAlign=middle;spacingTop=-1;spacingLeft=3;spacingRight=3;rotatable=0;labelPosition=right;points=[];portConstraint=eastwest;labelBackgroundColor=#DAD2D8;strokeColor=#0F8B8D;fontColor=#143642;" parent="cKhNgOHziQ-rXU9oQnhB-97" vertex="1"><mxGeometry y="110" width="170" height="8" as="geometry"/></mxCell><mxCell id="cKhNgOHziQ-rXU9oQnhB-100" value="+getName(): String&#10;+getCost(): double" style="text;strokeColor=#0F8B8D;fillColor=#FAE5C7;align=left;verticalAlign=top;spacingLeft=4;spacingRight=4;overflow=hidden;rotatable=0;points=[[0,0.5],[1,0.5]];portConstraint=eastwest;fontColor=#143642;" parent="cKhNgOHziQ-rXU9oQnhB-97" vertex="1"><mxGeometry y="118" width="170" height="52" as="geometry"/></mxCell><mxCell id="cKhNgOHziQ-rXU9oQnhB-124" style="edgeStyle=orthogonalEdgeStyle;rounded=0;orthogonalLoop=1;jettySize=auto;html=1;exitX=0.5;exitY=0;exitDx=0;exitDy=0;endArrow=none;endFill=0;labelBackgroundColor=#DAD2D8;strokeColor=#A8201A;fontColor=#143642;" parent="WIyWlLk6GJQsqaUBKTNV-1" source="cKhNgOHziQ-rXU9oQnhB-101" edge="1"><mxGeometry relative="1" as="geometry"><mxPoint x="-545" y="1290" as="targetPoint"/></mxGeometry></mxCell><mxCell id="cKhNgOHziQ-rXU9oQnhB-101" value="Swiss" style="swimlane;fontStyle=1;align=center;verticalAlign=top;childLayout=stackLayout;horizontal=1;startSize=26;horizontalStack=0;resizeParent=1;resizeParentMax=0;resizeLast=0;collapsible=1;marginBottom=0;strokeColor=#0F8B8D;fillColor=#FAE5C7;fontColor=#143642;" parent="WIyWlLk6GJQsqaUBKTNV-1" vertex="1"><mxGeometry x="-630" y="1340" width="170" height="170" as="geometry"/></mxCell><mxCell id="cKhNgOHziQ-rXU9oQnhB-102" value="-NameOfSwiss:String&#10;-CostOfSwiss: double" style="text;strokeColor=#0F8B8D;fillColor=#FAE5C7;align=left;verticalAlign=top;spacingLeft=4;spacingRight=4;overflow=hidden;rotatable=0;points=[[0,0.5],[1,0.5]];portConstraint=eastwest;fontColor=#143642;" parent="cKhNgOHziQ-rXU9oQnhB-101" vertex="1"><mxGeometry y="26" width="170" height="84" as="geometry"/></mxCell><mxCell id="cKhNgOHziQ-rXU9oQnhB-103" value="" style="line;strokeWidth=1;fillColor=none;align=left;verticalAlign=middle;spacingTop=-1;spacingLeft=3;spacingRight=3;rotatable=0;labelPosition=right;points=[];portConstraint=eastwest;labelBackgroundColor=#DAD2D8;strokeColor=#0F8B8D;fontColor=#143642;" parent="cKhNgOHziQ-rXU9oQnhB-101" vertex="1"><mxGeometry y="110" width="170" height="8" as="geometry"/></mxCell><mxCell id="cKhNgOHziQ-rXU9oQnhB-104" value="+getName(): String&#10;+getCost(): double" style="text;strokeColor=#0F8B8D;fillColor=#FAE5C7;align=left;verticalAlign=top;spacingLeft=4;spacingRight=4;overflow=hidden;rotatable=0;points=[[0,0.5],[1,0.5]];portConstraint=eastwest;fontColor=#143642;" parent="cKhNgOHziQ-rXU9oQnhB-101" vertex="1"><mxGeometry y="118" width="170" height="52" as="geometry"/></mxCell><mxCell id="cKhNgOHziQ-rXU9oQnhB-123" style="edgeStyle=orthogonalEdgeStyle;rounded=0;orthogonalLoop=1;jettySize=auto;html=1;exitX=0.5;exitY=0;exitDx=0;exitDy=0;endArrow=block;endFill=0;labelBackgroundColor=#DAD2D8;strokeColor=#A8201A;fontColor=#143642;" parent="WIyWlLk6GJQsqaUBKTNV-1" edge="1"><mxGeometry relative="1" as="geometry"><mxPoint x="-605" y="1240" as="targetPoint"/><mxPoint x="-360" y="1340" as="sourcePoint"/><Array as="points"><mxPoint x="-360" y="1290"/><mxPoint x="-605" y="1290"/></Array></mxGeometry></mxCell><mxCell id="cKhNgOHziQ-rXU9oQnhB-105" value="Gouda" style="swimlane;fontStyle=1;align=center;verticalAlign=top;childLayout=stackLayout;horizontal=1;startSize=26;horizontalStack=0;resizeParent=1;resizeParentMax=0;resizeLast=0;collapsible=1;marginBottom=0;strokeColor=#0F8B8D;fillColor=#FAE5C7;fontColor=#143642;" parent="WIyWlLk6GJQsqaUBKTNV-1" vertex="1"><mxGeometry x="-450" y="1340" width="170" height="170" as="geometry"/></mxCell><mxCell id="cKhNgOHziQ-rXU9oQnhB-106" value="-NameOfGouda:String&#10;-CostOfGouda: double" style="text;strokeColor=#0F8B8D;fillColor=#FAE5C7;align=left;verticalAlign=top;spacingLeft=4;spacingRight=4;overflow=hidden;rotatable=0;points=[[0,0.5],[1,0.5]];portConstraint=eastwest;fontColor=#143642;" parent="cKhNgOHziQ-rXU9oQnhB-105" vertex="1"><mxGeometry y="26" width="170" height="84" as="geometry"/></mxCell><mxCell id="cKhNgOHziQ-rXU9oQnhB-107" value="" style="line;strokeWidth=1;fillColor=none;align=left;verticalAlign=middle;spacingTop=-1;spacingLeft=3;spacingRight=3;rotatable=0;labelPosition=right;points=[];portConstraint=eastwest;labelBackgroundColor=#DAD2D8;strokeColor=#0F8B8D;fontColor=#143642;" parent="cKhNgOHziQ-rXU9oQnhB-105" vertex="1"><mxGeometry y="110" width="170" height="8" as="geometry"/></mxCell><mxCell id="cKhNgOHziQ-rXU9oQnhB-108" value="+getName(): String&#10;+getCost(): double" style="text;strokeColor=#0F8B8D;fillColor=#FAE5C7;align=left;verticalAlign=top;spacingLeft=4;spacingRight=4;overflow=hidden;rotatable=0;points=[[0,0.5],[1,0.5]];portConstraint=eastwest;fontColor=#143642;" parent="cKhNgOHziQ-rXU9oQnhB-105" vertex="1"><mxGeometry y="118" width="170" height="52" as="geometry"/></mxCell><mxCell id="2" style="edgeStyle=orthogonalEdgeStyle;curved=0;rounded=1;sketch=0;orthogonalLoop=1;jettySize=auto;html=1;exitX=0.5;exitY=0;exitDx=0;exitDy=0;entryX=1;entryY=0.5;entryDx=0;entryDy=0;fontColor=#143642;endArrow=none;endFill=0;strokeColor=#A8201A;fillColor=#FAE5C7;" parent="WIyWlLk6GJQsqaUBKTNV-1" source="cKhNgOHziQ-rXU9oQnhB-125" target="cKhNgOHziQ-rXU9oQnhB-13" edge="1"><mxGeometry relative="1" as="geometry"/></mxCell><mxCell id="cKhNgOHziQ-rXU9oQnhB-125" value="Sides" style="swimlane;fontStyle=3;align=center;verticalAlign=top;childLayout=stackLayout;horizontal=1;startSize=26;horizontalStack=0;resizeParent=1;resizeParentMax=0;resizeLast=0;collapsible=1;marginBottom=0;strokeColor=#0F8B8D;fillColor=#FAE5C7;fontColor=#143642;" parent="WIyWlLk6GJQsqaUBKTNV-1" vertex="1"><mxGeometry x="1230" y="1150" width="170" height="130" as="geometry"/></mxCell><mxCell id="cKhNgOHziQ-rXU9oQnhB-126" value="-NameOfSides:String&#10;-CostOfSides: double" style="text;strokeColor=#0F8B8D;fillColor=#FAE5C7;align=left;verticalAlign=top;spacingLeft=4;spacingRight=4;overflow=hidden;rotatable=0;points=[[0,0.5],[1,0.5]];portConstraint=eastwest;fontColor=#143642;" parent="cKhNgOHziQ-rXU9oQnhB-125" vertex="1"><mxGeometry y="26" width="170" height="44" as="geometry"/></mxCell><mxCell id="cKhNgOHziQ-rXU9oQnhB-127" value="" style="line;strokeWidth=1;fillColor=none;align=left;verticalAlign=middle;spacingTop=-1;spacingLeft=3;spacingRight=3;rotatable=0;labelPosition=right;points=[];portConstraint=eastwest;labelBackgroundColor=#DAD2D8;strokeColor=#0F8B8D;fontColor=#143642;" parent="cKhNgOHziQ-rXU9oQnhB-125" vertex="1"><mxGeometry y="70" width="170" height="8" as="geometry"/></mxCell><mxCell id="cKhNgOHziQ-rXU9oQnhB-128" value="+getName(): String&#10;+getCost(): double" style="text;strokeColor=#0F8B8D;fillColor=#FAE5C7;align=left;verticalAlign=top;spacingLeft=4;spacingRight=4;overflow=hidden;rotatable=0;points=[[0,0.5],[1,0.5]];portConstraint=eastwest;fontColor=#143642;" parent="cKhNgOHziQ-rXU9oQnhB-125" vertex="1"><mxGeometry y="78" width="170" height="52" as="geometry"/></mxCell><mxCell id="cKhNgOHziQ-rXU9oQnhB-256" style="edgeStyle=orthogonalEdgeStyle;rounded=0;orthogonalLoop=1;jettySize=auto;html=1;exitX=0.5;exitY=0;exitDx=0;exitDy=0;endArrow=none;endFill=0;labelBackgroundColor=#DAD2D8;strokeColor=#A8201A;fontColor=#143642;" parent="WIyWlLk6GJQsqaUBKTNV-1" edge="1"><mxGeometry relative="1" as="geometry"><mxPoint x="1317" y="1280" as="targetPoint"/><mxPoint x="872" y="1330" as="sourcePoint"/><Array as="points"><mxPoint x="872" y="1310"/><mxPoint x="1317" y="1310"/></Array></mxGeometry></mxCell><mxCell id="cKhNgOHziQ-rXU9oQnhB-130" value="Nuts" style="swimlane;fontStyle=3;align=center;verticalAlign=top;childLayout=stackLayout;horizontal=1;startSize=26;horizontalStack=0;resizeParent=1;resizeParentMax=0;resizeLast=0;collapsible=1;marginBottom=0;strokeColor=#0F8B8D;fillColor=#FAE5C7;fontColor=#143642;" parent="WIyWlLk6GJQsqaUBKTNV-1" vertex="1"><mxGeometry x="790" y="1330" width="170" height="150" as="geometry"/></mxCell><mxCell id="cKhNgOHziQ-rXU9oQnhB-131" value="-NameOfNuts:String&#10;-CostOfNuts: double" style="text;strokeColor=#0F8B8D;fillColor=#FAE5C7;align=left;verticalAlign=top;spacingLeft=4;spacingRight=4;overflow=hidden;rotatable=0;points=[[0,0.5],[1,0.5]];portConstraint=eastwest;fontColor=#143642;" parent="cKhNgOHziQ-rXU9oQnhB-130" vertex="1"><mxGeometry y="26" width="170" height="64" as="geometry"/></mxCell><mxCell id="cKhNgOHziQ-rXU9oQnhB-132" value="" style="line;strokeWidth=1;fillColor=none;align=left;verticalAlign=middle;spacingTop=-1;spacingLeft=3;spacingRight=3;rotatable=0;labelPosition=right;points=[];portConstraint=eastwest;labelBackgroundColor=#DAD2D8;strokeColor=#0F8B8D;fontColor=#143642;" parent="cKhNgOHziQ-rXU9oQnhB-130" vertex="1"><mxGeometry y="90" width="170" height="8" as="geometry"/></mxCell><mxCell id="cKhNgOHziQ-rXU9oQnhB-133" value="+getName(): String&#10;+getCost(): double" style="text;strokeColor=#0F8B8D;fillColor=#FAE5C7;align=left;verticalAlign=top;spacingLeft=4;spacingRight=4;overflow=hidden;rotatable=0;points=[[0,0.5],[1,0.5]];portConstraint=eastwest;fontColor=#143642;" parent="cKhNgOHziQ-rXU9oQnhB-130" vertex="1"><mxGeometry y="98" width="170" height="52" as="geometry"/></mxCell><mxCell id="cKhNgOHziQ-rXU9oQnhB-159" style="edgeStyle=orthogonalEdgeStyle;rounded=0;orthogonalLoop=1;jettySize=auto;html=1;exitX=0.5;exitY=0;exitDx=0;exitDy=0;entryX=0.5;entryY=1;entryDx=0;entryDy=0;endArrow=block;endFill=0;labelBackgroundColor=#DAD2D8;strokeColor=#A8201A;fontColor=#143642;" parent="WIyWlLk6GJQsqaUBKTNV-1" source="cKhNgOHziQ-rXU9oQnhB-160" target="cKhNgOHziQ-rXU9oQnhB-130" edge="1"><mxGeometry relative="1" as="geometry"/></mxCell><mxCell id="cKhNgOHziQ-rXU9oQnhB-160" value="Pecans" style="swimlane;fontStyle=1;align=center;verticalAlign=top;childLayout=stackLayout;horizontal=1;startSize=26;horizontalStack=0;resizeParent=1;resizeParentMax=0;resizeLast=0;collapsible=1;marginBottom=0;strokeColor=#0F8B8D;fillColor=#FAE5C7;fontColor=#143642;" parent="WIyWlLk6GJQsqaUBKTNV-1" vertex="1"><mxGeometry x="490" y="1580" width="170" height="170" as="geometry"/></mxCell><mxCell id="cKhNgOHziQ-rXU9oQnhB-161" value="-NameOfPecan:String&#10;-CostOfPecan: double" style="text;strokeColor=#0F8B8D;fillColor=#FAE5C7;align=left;verticalAlign=top;spacingLeft=4;spacingRight=4;overflow=hidden;rotatable=0;points=[[0,0.5],[1,0.5]];portConstraint=eastwest;fontColor=#143642;" parent="cKhNgOHziQ-rXU9oQnhB-160" vertex="1"><mxGeometry y="26" width="170" height="84" as="geometry"/></mxCell><mxCell id="cKhNgOHziQ-rXU9oQnhB-162" value="" style="line;strokeWidth=1;fillColor=none;align=left;verticalAlign=middle;spacingTop=-1;spacingLeft=3;spacingRight=3;rotatable=0;labelPosition=right;points=[];portConstraint=eastwest;labelBackgroundColor=#DAD2D8;strokeColor=#0F8B8D;fontColor=#143642;" parent="cKhNgOHziQ-rXU9oQnhB-160" vertex="1"><mxGeometry y="110" width="170" height="8" as="geometry"/></mxCell><mxCell id="cKhNgOHziQ-rXU9oQnhB-163" value="+getName(): String&#10;+getCost(): double" style="text;strokeColor=#0F8B8D;fillColor=#FAE5C7;align=left;verticalAlign=top;spacingLeft=4;spacingRight=4;overflow=hidden;rotatable=0;points=[[0,0.5],[1,0.5]];portConstraint=eastwest;fontColor=#143642;" parent="cKhNgOHziQ-rXU9oQnhB-160" vertex="1"><mxGeometry y="118" width="170" height="52" as="geometry"/></mxCell><mxCell id="cKhNgOHziQ-rXU9oQnhB-164" style="edgeStyle=orthogonalEdgeStyle;rounded=0;orthogonalLoop=1;jettySize=auto;html=1;exitX=0.5;exitY=0;exitDx=0;exitDy=0;endArrow=none;endFill=0;labelBackgroundColor=#DAD2D8;strokeColor=#A8201A;fontColor=#143642;" parent="WIyWlLk6GJQsqaUBKTNV-1" source="cKhNgOHziQ-rXU9oQnhB-165" edge="1"><mxGeometry relative="1" as="geometry"><mxPoint x="755" y="1530" as="targetPoint"/></mxGeometry></mxCell><mxCell id="cKhNgOHziQ-rXU9oQnhB-165" value="Almonds" style="swimlane;fontStyle=1;align=center;verticalAlign=top;childLayout=stackLayout;horizontal=1;startSize=26;horizontalStack=0;resizeParent=1;resizeParentMax=0;resizeLast=0;collapsible=1;marginBottom=0;strokeColor=#0F8B8D;fillColor=#FAE5C7;fontColor=#143642;" parent="WIyWlLk6GJQsqaUBKTNV-1" vertex="1"><mxGeometry x="670" y="1580" width="170" height="170" as="geometry"/></mxCell><mxCell id="cKhNgOHziQ-rXU9oQnhB-166" value="-NameOfAlmonds:String&#10;-CostOfAlmonds: double" style="text;strokeColor=#0F8B8D;fillColor=#FAE5C7;align=left;verticalAlign=top;spacingLeft=4;spacingRight=4;overflow=hidden;rotatable=0;points=[[0,0.5],[1,0.5]];portConstraint=eastwest;fontColor=#143642;" parent="cKhNgOHziQ-rXU9oQnhB-165" vertex="1"><mxGeometry y="26" width="170" height="84" as="geometry"/></mxCell><mxCell id="cKhNgOHziQ-rXU9oQnhB-167" value="" style="line;strokeWidth=1;fillColor=none;align=left;verticalAlign=middle;spacingTop=-1;spacingLeft=3;spacingRight=3;rotatable=0;labelPosition=right;points=[];portConstraint=eastwest;labelBackgroundColor=#DAD2D8;strokeColor=#0F8B8D;fontColor=#143642;" parent="cKhNgOHziQ-rXU9oQnhB-165" vertex="1"><mxGeometry y="110" width="170" height="8" as="geometry"/></mxCell><mxCell id="cKhNgOHziQ-rXU9oQnhB-168" value="+getName(): String&#10;+getCost(): double" style="text;strokeColor=#0F8B8D;fillColor=#FAE5C7;align=left;verticalAlign=top;spacingLeft=4;spacingRight=4;overflow=hidden;rotatable=0;points=[[0,0.5],[1,0.5]];portConstraint=eastwest;fontColor=#143642;" parent="cKhNgOHziQ-rXU9oQnhB-165" vertex="1"><mxGeometry y="118" width="170" height="52" as="geometry"/></mxCell><mxCell id="cKhNgOHziQ-rXU9oQnhB-169" style="edgeStyle=orthogonalEdgeStyle;rounded=0;orthogonalLoop=1;jettySize=auto;html=1;exitX=0.5;exitY=0;exitDx=0;exitDy=0;endArrow=none;endFill=0;labelBackgroundColor=#DAD2D8;strokeColor=#A8201A;fontColor=#143642;" parent="WIyWlLk6GJQsqaUBKTNV-1" source="cKhNgOHziQ-rXU9oQnhB-170" edge="1"><mxGeometry relative="1" as="geometry"><mxPoint x="935" y="1530" as="targetPoint"/></mxGeometry></mxCell><mxCell id="cKhNgOHziQ-rXU9oQnhB-170" value="Pistachios" style="swimlane;fontStyle=1;align=center;verticalAlign=top;childLayout=stackLayout;horizontal=1;startSize=26;horizontalStack=0;resizeParent=1;resizeParentMax=0;resizeLast=0;collapsible=1;marginBottom=0;strokeColor=#0F8B8D;fillColor=#FAE5C7;fontColor=#143642;" parent="WIyWlLk6GJQsqaUBKTNV-1" vertex="1"><mxGeometry x="850" y="1580" width="170" height="170" as="geometry"/></mxCell><mxCell id="cKhNgOHziQ-rXU9oQnhB-171" value="-NameOfPistach:String&#10;-CostOfPistach: double" style="text;strokeColor=#0F8B8D;fillColor=#FAE5C7;align=left;verticalAlign=top;spacingLeft=4;spacingRight=4;overflow=hidden;rotatable=0;points=[[0,0.5],[1,0.5]];portConstraint=eastwest;fontColor=#143642;" parent="cKhNgOHziQ-rXU9oQnhB-170" vertex="1"><mxGeometry y="26" width="170" height="84" as="geometry"/></mxCell><mxCell id="cKhNgOHziQ-rXU9oQnhB-172" value="" style="line;strokeWidth=1;fillColor=none;align=left;verticalAlign=middle;spacingTop=-1;spacingLeft=3;spacingRight=3;rotatable=0;labelPosition=right;points=[];portConstraint=eastwest;labelBackgroundColor=#DAD2D8;strokeColor=#0F8B8D;fontColor=#143642;" parent="cKhNgOHziQ-rXU9oQnhB-170" vertex="1"><mxGeometry y="110" width="170" height="8" as="geometry"/></mxCell><mxCell id="cKhNgOHziQ-rXU9oQnhB-173" value="+getName(): String&#10;+getCost(): double" style="text;strokeColor=#0F8B8D;fillColor=#FAE5C7;align=left;verticalAlign=top;spacingLeft=4;spacingRight=4;overflow=hidden;rotatable=0;points=[[0,0.5],[1,0.5]];portConstraint=eastwest;fontColor=#143642;" parent="cKhNgOHziQ-rXU9oQnhB-170" vertex="1"><mxGeometry y="118" width="170" height="52" as="geometry"/></mxCell><mxCell id="cKhNgOHziQ-rXU9oQnhB-174" style="edgeStyle=orthogonalEdgeStyle;rounded=0;orthogonalLoop=1;jettySize=auto;html=1;exitX=0.5;exitY=0;exitDx=0;exitDy=0;endArrow=block;endFill=0;labelBackgroundColor=#DAD2D8;strokeColor=#A8201A;fontColor=#143642;" parent="WIyWlLk6GJQsqaUBKTNV-1" edge="1"><mxGeometry relative="1" as="geometry"><mxPoint x="875" y="1480" as="targetPoint"/><mxPoint x="1120" y="1580" as="sourcePoint"/><Array as="points"><mxPoint x="1120" y="1530"/><mxPoint x="875" y="1530"/></Array></mxGeometry></mxCell><mxCell id="cKhNgOHziQ-rXU9oQnhB-175" value="Cashews" style="swimlane;fontStyle=1;align=center;verticalAlign=top;childLayout=stackLayout;horizontal=1;startSize=26;horizontalStack=0;resizeParent=1;resizeParentMax=0;resizeLast=0;collapsible=1;marginBottom=0;strokeColor=#0F8B8D;fillColor=#FAE5C7;fontColor=#143642;" parent="WIyWlLk6GJQsqaUBKTNV-1" vertex="1"><mxGeometry x="1030" y="1580" width="170" height="170" as="geometry"/></mxCell><mxCell id="cKhNgOHziQ-rXU9oQnhB-176" value="-NameOfCashew:String&#10;-CostOfCashew: double" style="text;strokeColor=#0F8B8D;fillColor=#FAE5C7;align=left;verticalAlign=top;spacingLeft=4;spacingRight=4;overflow=hidden;rotatable=0;points=[[0,0.5],[1,0.5]];portConstraint=eastwest;fontColor=#143642;" parent="cKhNgOHziQ-rXU9oQnhB-175" vertex="1"><mxGeometry y="26" width="170" height="84" as="geometry"/></mxCell><mxCell id="cKhNgOHziQ-rXU9oQnhB-177" value="" style="line;strokeWidth=1;fillColor=none;align=left;verticalAlign=middle;spacingTop=-1;spacingLeft=3;spacingRight=3;rotatable=0;labelPosition=right;points=[];portConstraint=eastwest;labelBackgroundColor=#DAD2D8;strokeColor=#0F8B8D;fontColor=#143642;" parent="cKhNgOHziQ-rXU9oQnhB-175" vertex="1"><mxGeometry y="110" width="170" height="8" as="geometry"/></mxCell><mxCell id="cKhNgOHziQ-rXU9oQnhB-178" value="+getName(): String&#10;+getCost(): double" style="text;strokeColor=#0F8B8D;fillColor=#FAE5C7;align=left;verticalAlign=top;spacingLeft=4;spacingRight=4;overflow=hidden;rotatable=0;points=[[0,0.5],[1,0.5]];portConstraint=eastwest;fontColor=#143642;" parent="cKhNgOHziQ-rXU9oQnhB-175" vertex="1"><mxGeometry y="118" width="170" height="52" as="geometry"/></mxCell><mxCell id="cKhNgOHziQ-rXU9oQnhB-254" style="edgeStyle=orthogonalEdgeStyle;rounded=0;orthogonalLoop=1;jettySize=auto;html=1;exitX=0.5;exitY=0;exitDx=0;exitDy=0;endArrow=none;endFill=0;labelBackgroundColor=#DAD2D8;strokeColor=#A8201A;fontColor=#143642;" parent="WIyWlLk6GJQsqaUBKTNV-1" edge="1"><mxGeometry relative="1" as="geometry"><mxPoint x="1317" y="1300" as="targetPoint"/><mxPoint x="1316" y="1750" as="sourcePoint"/></mxGeometry></mxCell><mxCell id="cKhNgOHziQ-rXU9oQnhB-179" value="Vegetables" style="swimlane;fontStyle=3;align=center;verticalAlign=top;childLayout=stackLayout;horizontal=1;startSize=26;horizontalStack=0;resizeParent=1;resizeParentMax=0;resizeLast=0;collapsible=1;marginBottom=0;strokeColor=#0F8B8D;fillColor=#FAE5C7;fontColor=#143642;" parent="WIyWlLk6GJQsqaUBKTNV-1" vertex="1"><mxGeometry x="1230" y="1750" width="170" height="150" as="geometry"/></mxCell><mxCell id="cKhNgOHziQ-rXU9oQnhB-180" value="-NameOfVegs:String&#10;-CostOfVegs: double" style="text;strokeColor=#0F8B8D;fillColor=#FAE5C7;align=left;verticalAlign=top;spacingLeft=4;spacingRight=4;overflow=hidden;rotatable=0;points=[[0,0.5],[1,0.5]];portConstraint=eastwest;fontColor=#143642;" parent="cKhNgOHziQ-rXU9oQnhB-179" vertex="1"><mxGeometry y="26" width="170" height="64" as="geometry"/></mxCell><mxCell id="cKhNgOHziQ-rXU9oQnhB-181" value="" style="line;strokeWidth=1;fillColor=none;align=left;verticalAlign=middle;spacingTop=-1;spacingLeft=3;spacingRight=3;rotatable=0;labelPosition=right;points=[];portConstraint=eastwest;labelBackgroundColor=#DAD2D8;strokeColor=#0F8B8D;fontColor=#143642;" parent="cKhNgOHziQ-rXU9oQnhB-179" vertex="1"><mxGeometry y="90" width="170" height="8" as="geometry"/></mxCell><mxCell id="cKhNgOHziQ-rXU9oQnhB-182" value="+getName(): String&#10;+getCost(): double" style="text;strokeColor=#0F8B8D;fillColor=#FAE5C7;align=left;verticalAlign=top;spacingLeft=4;spacingRight=4;overflow=hidden;rotatable=0;points=[[0,0.5],[1,0.5]];portConstraint=eastwest;fontColor=#143642;" parent="cKhNgOHziQ-rXU9oQnhB-179" vertex="1"><mxGeometry y="98" width="170" height="52" as="geometry"/></mxCell><mxCell id="cKhNgOHziQ-rXU9oQnhB-257" style="edgeStyle=orthogonalEdgeStyle;rounded=0;orthogonalLoop=1;jettySize=auto;html=1;exitX=0.5;exitY=0;exitDx=0;exitDy=0;endArrow=none;endFill=0;labelBackgroundColor=#DAD2D8;strokeColor=#A8201A;fontColor=#143642;" parent="WIyWlLk6GJQsqaUBKTNV-1" edge="1"><mxGeometry relative="1" as="geometry"><mxPoint x="1317" y="1280" as="targetPoint"/><mxPoint x="1742" y="1370" as="sourcePoint"/><Array as="points"><mxPoint x="1742" y="1310"/><mxPoint x="1317" y="1310"/></Array></mxGeometry></mxCell><mxCell id="cKhNgOHziQ-rXU9oQnhB-183" value="Briny" style="swimlane;fontStyle=3;align=center;verticalAlign=top;childLayout=stackLayout;horizontal=1;startSize=26;horizontalStack=0;resizeParent=1;resizeParentMax=0;resizeLast=0;collapsible=1;marginBottom=0;strokeColor=#0F8B8D;fillColor=#FAE5C7;fontColor=#143642;" parent="WIyWlLk6GJQsqaUBKTNV-1" vertex="1"><mxGeometry x="1660" y="1330" width="170" height="160" as="geometry"/></mxCell><mxCell id="cKhNgOHziQ-rXU9oQnhB-184" value="-NameOfBriny:String&#10;-CostOfBriny: double" style="text;strokeColor=#0F8B8D;fillColor=#FAE5C7;align=left;verticalAlign=top;spacingLeft=4;spacingRight=4;overflow=hidden;rotatable=0;points=[[0,0.5],[1,0.5]];portConstraint=eastwest;fontColor=#143642;" parent="cKhNgOHziQ-rXU9oQnhB-183" vertex="1"><mxGeometry y="26" width="170" height="74" as="geometry"/></mxCell><mxCell id="cKhNgOHziQ-rXU9oQnhB-185" value="" style="line;strokeWidth=1;fillColor=none;align=left;verticalAlign=middle;spacingTop=-1;spacingLeft=3;spacingRight=3;rotatable=0;labelPosition=right;points=[];portConstraint=eastwest;labelBackgroundColor=#DAD2D8;strokeColor=#0F8B8D;fontColor=#143642;" parent="cKhNgOHziQ-rXU9oQnhB-183" vertex="1"><mxGeometry y="100" width="170" height="8" as="geometry"/></mxCell><mxCell id="cKhNgOHziQ-rXU9oQnhB-186" value="+getName(): String&#10;+getCost(): double" style="text;strokeColor=#0F8B8D;fillColor=#FAE5C7;align=left;verticalAlign=top;spacingLeft=4;spacingRight=4;overflow=hidden;rotatable=0;points=[[0,0.5],[1,0.5]];portConstraint=eastwest;fontColor=#143642;" parent="cKhNgOHziQ-rXU9oQnhB-183" vertex="1"><mxGeometry y="108" width="170" height="52" as="geometry"/></mxCell><mxCell id="cKhNgOHziQ-rXU9oQnhB-187" style="edgeStyle=orthogonalEdgeStyle;rounded=0;orthogonalLoop=1;jettySize=auto;html=1;exitX=0.5;exitY=0;exitDx=0;exitDy=0;endArrow=block;endFill=0;labelBackgroundColor=#DAD2D8;strokeColor=#A8201A;fontColor=#143642;" parent="WIyWlLk6GJQsqaUBKTNV-1" source="cKhNgOHziQ-rXU9oQnhB-188" edge="1"><mxGeometry relative="1" as="geometry"><mxPoint x="1740" y="1492" as="targetPoint"/></mxGeometry></mxCell><mxCell id="cKhNgOHziQ-rXU9oQnhB-188" value="Pickles" style="swimlane;fontStyle=1;align=center;verticalAlign=top;childLayout=stackLayout;horizontal=1;startSize=26;horizontalStack=0;resizeParent=1;resizeParentMax=0;resizeLast=0;collapsible=1;marginBottom=0;strokeColor=#0F8B8D;fillColor=#FAE5C7;fontColor=#143642;" parent="WIyWlLk6GJQsqaUBKTNV-1" vertex="1"><mxGeometry x="1450" y="1602" width="170" height="170" as="geometry"/></mxCell><mxCell id="cKhNgOHziQ-rXU9oQnhB-189" value="-NameOfHummus:String&#10;-CostOfPickles: double" style="text;strokeColor=#0F8B8D;fillColor=#FAE5C7;align=left;verticalAlign=top;spacingLeft=4;spacingRight=4;overflow=hidden;rotatable=0;points=[[0,0.5],[1,0.5]];portConstraint=eastwest;fontColor=#143642;" parent="cKhNgOHziQ-rXU9oQnhB-188" vertex="1"><mxGeometry y="26" width="170" height="84" as="geometry"/></mxCell><mxCell id="cKhNgOHziQ-rXU9oQnhB-190" value="" style="line;strokeWidth=1;fillColor=none;align=left;verticalAlign=middle;spacingTop=-1;spacingLeft=3;spacingRight=3;rotatable=0;labelPosition=right;points=[];portConstraint=eastwest;labelBackgroundColor=#DAD2D8;strokeColor=#0F8B8D;fontColor=#143642;" parent="cKhNgOHziQ-rXU9oQnhB-188" vertex="1"><mxGeometry y="110" width="170" height="8" as="geometry"/></mxCell><mxCell id="cKhNgOHziQ-rXU9oQnhB-191" value="+getName(): String&#10;+getCost(): double" style="text;strokeColor=#0F8B8D;fillColor=#FAE5C7;align=left;verticalAlign=top;spacingLeft=4;spacingRight=4;overflow=hidden;rotatable=0;points=[[0,0.5],[1,0.5]];portConstraint=eastwest;fontColor=#143642;" parent="cKhNgOHziQ-rXU9oQnhB-188" vertex="1"><mxGeometry y="118" width="170" height="52" as="geometry"/></mxCell><mxCell id="cKhNgOHziQ-rXU9oQnhB-192" style="edgeStyle=orthogonalEdgeStyle;rounded=0;orthogonalLoop=1;jettySize=auto;html=1;exitX=0.5;exitY=0;exitDx=0;exitDy=0;endArrow=block;endFill=0;labelBackgroundColor=#DAD2D8;strokeColor=#A8201A;fontColor=#143642;" parent="WIyWlLk6GJQsqaUBKTNV-1" source="cKhNgOHziQ-rXU9oQnhB-193" edge="1"><mxGeometry relative="1" as="geometry"><mxPoint x="1740" y="1492" as="targetPoint"/></mxGeometry></mxCell><mxCell id="cKhNgOHziQ-rXU9oQnhB-193" value="Olives" style="swimlane;fontStyle=1;align=center;verticalAlign=top;childLayout=stackLayout;horizontal=1;startSize=26;horizontalStack=0;resizeParent=1;resizeParentMax=0;resizeLast=0;collapsible=1;marginBottom=0;strokeColor=#0F8B8D;fillColor=#FAE5C7;fontColor=#143642;" parent="WIyWlLk6GJQsqaUBKTNV-1" vertex="1"><mxGeometry x="1630" y="1602" width="170" height="170" as="geometry"/></mxCell><mxCell id="cKhNgOHziQ-rXU9oQnhB-194" value="-NameOfOlives:String&#10;-CostOfOlives: double" style="text;strokeColor=#0F8B8D;fillColor=#FAE5C7;align=left;verticalAlign=top;spacingLeft=4;spacingRight=4;overflow=hidden;rotatable=0;points=[[0,0.5],[1,0.5]];portConstraint=eastwest;fontColor=#143642;" parent="cKhNgOHziQ-rXU9oQnhB-193" vertex="1"><mxGeometry y="26" width="170" height="84" as="geometry"/></mxCell><mxCell id="cKhNgOHziQ-rXU9oQnhB-195" value="" style="line;strokeWidth=1;fillColor=none;align=left;verticalAlign=middle;spacingTop=-1;spacingLeft=3;spacingRight=3;rotatable=0;labelPosition=right;points=[];portConstraint=eastwest;labelBackgroundColor=#DAD2D8;strokeColor=#0F8B8D;fontColor=#143642;" parent="cKhNgOHziQ-rXU9oQnhB-193" vertex="1"><mxGeometry y="110" width="170" height="8" as="geometry"/></mxCell><mxCell id="cKhNgOHziQ-rXU9oQnhB-196" value="+getName(): String&#10;+getCost(): double" style="text;strokeColor=#0F8B8D;fillColor=#FAE5C7;align=left;verticalAlign=top;spacingLeft=4;spacingRight=4;overflow=hidden;rotatable=0;points=[[0,0.5],[1,0.5]];portConstraint=eastwest;fontColor=#143642;" parent="cKhNgOHziQ-rXU9oQnhB-193" vertex="1"><mxGeometry y="118" width="170" height="52" as="geometry"/></mxCell><mxCell id="cKhNgOHziQ-rXU9oQnhB-197" style="edgeStyle=orthogonalEdgeStyle;rounded=0;orthogonalLoop=1;jettySize=auto;html=1;exitX=0.5;exitY=0;exitDx=0;exitDy=0;endArrow=block;endFill=0;labelBackgroundColor=#DAD2D8;strokeColor=#A8201A;fontColor=#143642;" parent="WIyWlLk6GJQsqaUBKTNV-1" source="cKhNgOHziQ-rXU9oQnhB-198" edge="1"><mxGeometry relative="1" as="geometry"><mxPoint x="1740" y="1492" as="targetPoint"/></mxGeometry></mxCell><mxCell id="cKhNgOHziQ-rXU9oQnhB-198" value="Pepperochini" style="swimlane;fontStyle=1;align=center;verticalAlign=top;childLayout=stackLayout;horizontal=1;startSize=26;horizontalStack=0;resizeParent=1;resizeParentMax=0;resizeLast=0;collapsible=1;marginBottom=0;strokeColor=#0F8B8D;fillColor=#FAE5C7;fontColor=#143642;" parent="WIyWlLk6GJQsqaUBKTNV-1" vertex="1"><mxGeometry x="1810" y="1602" width="170" height="170" as="geometry"/></mxCell><mxCell id="cKhNgOHziQ-rXU9oQnhB-199" value="-NameOfPepperocini:String&#10;-CostOfPepperocini: double" style="text;strokeColor=#0F8B8D;fillColor=#FAE5C7;align=left;verticalAlign=top;spacingLeft=4;spacingRight=4;overflow=hidden;rotatable=0;points=[[0,0.5],[1,0.5]];portConstraint=eastwest;fontColor=#143642;" parent="cKhNgOHziQ-rXU9oQnhB-198" vertex="1"><mxGeometry y="26" width="170" height="84" as="geometry"/></mxCell><mxCell id="cKhNgOHziQ-rXU9oQnhB-200" value="" style="line;strokeWidth=1;fillColor=none;align=left;verticalAlign=middle;spacingTop=-1;spacingLeft=3;spacingRight=3;rotatable=0;labelPosition=right;points=[];portConstraint=eastwest;labelBackgroundColor=#DAD2D8;strokeColor=#0F8B8D;fontColor=#143642;" parent="cKhNgOHziQ-rXU9oQnhB-198" vertex="1"><mxGeometry y="110" width="170" height="8" as="geometry"/></mxCell><mxCell id="cKhNgOHziQ-rXU9oQnhB-201" value="+getName(): String&#10;+getCost(): double" style="text;strokeColor=#0F8B8D;fillColor=#FAE5C7;align=left;verticalAlign=top;spacingLeft=4;spacingRight=4;overflow=hidden;rotatable=0;points=[[0,0.5],[1,0.5]];portConstraint=eastwest;fontColor=#143642;" parent="cKhNgOHziQ-rXU9oQnhB-198" vertex="1"><mxGeometry y="118" width="170" height="52" as="geometry"/></mxCell><mxCell id="cKhNgOHziQ-rXU9oQnhB-202" style="edgeStyle=orthogonalEdgeStyle;rounded=0;orthogonalLoop=1;jettySize=auto;html=1;exitX=0.5;exitY=0;exitDx=0;exitDy=0;endArrow=block;endFill=0;labelBackgroundColor=#DAD2D8;strokeColor=#A8201A;fontColor=#143642;" parent="WIyWlLk6GJQsqaUBKTNV-1" source="cKhNgOHziQ-rXU9oQnhB-203" edge="1"><mxGeometry relative="1" as="geometry"><mxPoint x="1740" y="1492" as="targetPoint"/></mxGeometry></mxCell><mxCell id="cKhNgOHziQ-rXU9oQnhB-203" value="Onion" style="swimlane;fontStyle=1;align=center;verticalAlign=top;childLayout=stackLayout;horizontal=1;startSize=26;horizontalStack=0;resizeParent=1;resizeParentMax=0;resizeLast=0;collapsible=1;marginBottom=0;strokeColor=#0F8B8D;fillColor=#FAE5C7;fontColor=#143642;" parent="WIyWlLk6GJQsqaUBKTNV-1" vertex="1"><mxGeometry x="1990" y="1602" width="170" height="170" as="geometry"/></mxCell><mxCell id="cKhNgOHziQ-rXU9oQnhB-204" value="-NameOfOnion:String&#10;-CostOfOnion: double" style="text;strokeColor=#0F8B8D;fillColor=#FAE5C7;align=left;verticalAlign=top;spacingLeft=4;spacingRight=4;overflow=hidden;rotatable=0;points=[[0,0.5],[1,0.5]];portConstraint=eastwest;fontColor=#143642;" parent="cKhNgOHziQ-rXU9oQnhB-203" vertex="1"><mxGeometry y="26" width="170" height="84" as="geometry"/></mxCell><mxCell id="cKhNgOHziQ-rXU9oQnhB-205" value="" style="line;strokeWidth=1;fillColor=none;align=left;verticalAlign=middle;spacingTop=-1;spacingLeft=3;spacingRight=3;rotatable=0;labelPosition=right;points=[];portConstraint=eastwest;labelBackgroundColor=#DAD2D8;strokeColor=#0F8B8D;fontColor=#143642;" parent="cKhNgOHziQ-rXU9oQnhB-203" vertex="1"><mxGeometry y="110" width="170" height="8" as="geometry"/></mxCell><mxCell id="cKhNgOHziQ-rXU9oQnhB-206" value="+getName(): String&#10;+getCost(): double" style="text;strokeColor=#0F8B8D;fillColor=#FAE5C7;align=left;verticalAlign=top;spacingLeft=4;spacingRight=4;overflow=hidden;rotatable=0;points=[[0,0.5],[1,0.5]];portConstraint=eastwest;fontColor=#143642;" parent="cKhNgOHziQ-rXU9oQnhB-203" vertex="1"><mxGeometry y="118" width="170" height="52" as="geometry"/></mxCell><mxCell id="cKhNgOHziQ-rXU9oQnhB-207" style="edgeStyle=orthogonalEdgeStyle;rounded=0;orthogonalLoop=1;jettySize=auto;html=1;exitX=0.5;exitY=0;exitDx=0;exitDy=0;entryX=0.5;entryY=1;entryDx=0;entryDy=0;endArrow=block;endFill=0;labelBackgroundColor=#DAD2D8;strokeColor=#A8201A;fontColor=#143642;" parent="WIyWlLk6GJQsqaUBKTNV-1" source="cKhNgOHziQ-rXU9oQnhB-208" target="cKhNgOHziQ-rXU9oQnhB-179" edge="1"><mxGeometry relative="1" as="geometry"/></mxCell><mxCell id="cKhNgOHziQ-rXU9oQnhB-208" value="Brocoli" style="swimlane;fontStyle=1;align=center;verticalAlign=top;childLayout=stackLayout;horizontal=1;startSize=26;horizontalStack=0;resizeParent=1;resizeParentMax=0;resizeLast=0;collapsible=1;marginBottom=0;strokeColor=#0F8B8D;fillColor=#FAE5C7;fontColor=#143642;" parent="WIyWlLk6GJQsqaUBKTNV-1" vertex="1"><mxGeometry x="930" y="2000" width="170" height="170" as="geometry"/></mxCell><mxCell id="cKhNgOHziQ-rXU9oQnhB-209" value="-NameOfBroccoli:String&#10;-CostOfBroccoli: double" style="text;strokeColor=#0F8B8D;fillColor=#FAE5C7;align=left;verticalAlign=top;spacingLeft=4;spacingRight=4;overflow=hidden;rotatable=0;points=[[0,0.5],[1,0.5]];portConstraint=eastwest;fontColor=#143642;" parent="cKhNgOHziQ-rXU9oQnhB-208" vertex="1"><mxGeometry y="26" width="170" height="84" as="geometry"/></mxCell><mxCell id="cKhNgOHziQ-rXU9oQnhB-210" value="" style="line;strokeWidth=1;fillColor=none;align=left;verticalAlign=middle;spacingTop=-1;spacingLeft=3;spacingRight=3;rotatable=0;labelPosition=right;points=[];portConstraint=eastwest;labelBackgroundColor=#DAD2D8;strokeColor=#0F8B8D;fontColor=#143642;" parent="cKhNgOHziQ-rXU9oQnhB-208" vertex="1"><mxGeometry y="110" width="170" height="8" as="geometry"/></mxCell><mxCell id="cKhNgOHziQ-rXU9oQnhB-211" value="+getName(): String&#10;+getCost(): double" style="text;strokeColor=#0F8B8D;fillColor=#FAE5C7;align=left;verticalAlign=top;spacingLeft=4;spacingRight=4;overflow=hidden;rotatable=0;points=[[0,0.5],[1,0.5]];portConstraint=eastwest;fontColor=#143642;" parent="cKhNgOHziQ-rXU9oQnhB-208" vertex="1"><mxGeometry y="118" width="170" height="52" as="geometry"/></mxCell><mxCell id="cKhNgOHziQ-rXU9oQnhB-212" style="edgeStyle=orthogonalEdgeStyle;rounded=0;orthogonalLoop=1;jettySize=auto;html=1;exitX=0.5;exitY=0;exitDx=0;exitDy=0;endArrow=none;endFill=0;labelBackgroundColor=#DAD2D8;strokeColor=#A8201A;fontColor=#143642;" parent="WIyWlLk6GJQsqaUBKTNV-1" source="cKhNgOHziQ-rXU9oQnhB-213" edge="1"><mxGeometry relative="1" as="geometry"><mxPoint x="1195" y="1950" as="targetPoint"/></mxGeometry></mxCell><mxCell id="cKhNgOHziQ-rXU9oQnhB-213" value="Carrots" style="swimlane;fontStyle=1;align=center;verticalAlign=top;childLayout=stackLayout;horizontal=1;startSize=26;horizontalStack=0;resizeParent=1;resizeParentMax=0;resizeLast=0;collapsible=1;marginBottom=0;strokeColor=#0F8B8D;fillColor=#FAE5C7;fontColor=#143642;" parent="WIyWlLk6GJQsqaUBKTNV-1" vertex="1"><mxGeometry x="1110" y="2000" width="170" height="170" as="geometry"/></mxCell><mxCell id="cKhNgOHziQ-rXU9oQnhB-214" value="-NameOfCarrots:String&#10;-CostOfCarrots: double" style="text;strokeColor=#0F8B8D;fillColor=#FAE5C7;align=left;verticalAlign=top;spacingLeft=4;spacingRight=4;overflow=hidden;rotatable=0;points=[[0,0.5],[1,0.5]];portConstraint=eastwest;fontColor=#143642;" parent="cKhNgOHziQ-rXU9oQnhB-213" vertex="1"><mxGeometry y="26" width="170" height="84" as="geometry"/></mxCell><mxCell id="cKhNgOHziQ-rXU9oQnhB-215" value="" style="line;strokeWidth=1;fillColor=none;align=left;verticalAlign=middle;spacingTop=-1;spacingLeft=3;spacingRight=3;rotatable=0;labelPosition=right;points=[];portConstraint=eastwest;labelBackgroundColor=#DAD2D8;strokeColor=#0F8B8D;fontColor=#143642;" parent="cKhNgOHziQ-rXU9oQnhB-213" vertex="1"><mxGeometry y="110" width="170" height="8" as="geometry"/></mxCell><mxCell id="cKhNgOHziQ-rXU9oQnhB-216" value="+getName(): String&#10;+getCost(): double" style="text;strokeColor=#0F8B8D;fillColor=#FAE5C7;align=left;verticalAlign=top;spacingLeft=4;spacingRight=4;overflow=hidden;rotatable=0;points=[[0,0.5],[1,0.5]];portConstraint=eastwest;fontColor=#143642;" parent="cKhNgOHziQ-rXU9oQnhB-213" vertex="1"><mxGeometry y="118" width="170" height="52" as="geometry"/></mxCell><mxCell id="cKhNgOHziQ-rXU9oQnhB-217" style="edgeStyle=orthogonalEdgeStyle;rounded=0;orthogonalLoop=1;jettySize=auto;html=1;exitX=0.5;exitY=0;exitDx=0;exitDy=0;endArrow=none;endFill=0;labelBackgroundColor=#DAD2D8;strokeColor=#A8201A;fontColor=#143642;" parent="WIyWlLk6GJQsqaUBKTNV-1" source="cKhNgOHziQ-rXU9oQnhB-218" edge="1"><mxGeometry relative="1" as="geometry"><mxPoint x="1375" y="1950" as="targetPoint"/></mxGeometry></mxCell><mxCell id="cKhNgOHziQ-rXU9oQnhB-218" value="Celery" style="swimlane;fontStyle=1;align=center;verticalAlign=top;childLayout=stackLayout;horizontal=1;startSize=26;horizontalStack=0;resizeParent=1;resizeParentMax=0;resizeLast=0;collapsible=1;marginBottom=0;strokeColor=#0F8B8D;fillColor=#FAE5C7;fontColor=#143642;" parent="WIyWlLk6GJQsqaUBKTNV-1" vertex="1"><mxGeometry x="1290" y="2000" width="170" height="170" as="geometry"/></mxCell><mxCell id="cKhNgOHziQ-rXU9oQnhB-219" value="-NameOfCelery:String&#10;-CostOfCelery: double" style="text;strokeColor=#0F8B8D;fillColor=#FAE5C7;align=left;verticalAlign=top;spacingLeft=4;spacingRight=4;overflow=hidden;rotatable=0;points=[[0,0.5],[1,0.5]];portConstraint=eastwest;fontColor=#143642;" parent="cKhNgOHziQ-rXU9oQnhB-218" vertex="1"><mxGeometry y="26" width="170" height="84" as="geometry"/></mxCell><mxCell id="cKhNgOHziQ-rXU9oQnhB-220" value="" style="line;strokeWidth=1;fillColor=none;align=left;verticalAlign=middle;spacingTop=-1;spacingLeft=3;spacingRight=3;rotatable=0;labelPosition=right;points=[];portConstraint=eastwest;labelBackgroundColor=#DAD2D8;strokeColor=#0F8B8D;fontColor=#143642;" parent="cKhNgOHziQ-rXU9oQnhB-218" vertex="1"><mxGeometry y="110" width="170" height="8" as="geometry"/></mxCell><mxCell id="cKhNgOHziQ-rXU9oQnhB-221" value="+getName(): String&#10;+getCost(): double" style="text;strokeColor=#0F8B8D;fillColor=#FAE5C7;align=left;verticalAlign=top;spacingLeft=4;spacingRight=4;overflow=hidden;rotatable=0;points=[[0,0.5],[1,0.5]];portConstraint=eastwest;fontColor=#143642;" parent="cKhNgOHziQ-rXU9oQnhB-218" vertex="1"><mxGeometry y="118" width="170" height="52" as="geometry"/></mxCell><mxCell id="cKhNgOHziQ-rXU9oQnhB-222" style="edgeStyle=orthogonalEdgeStyle;rounded=0;orthogonalLoop=1;jettySize=auto;html=1;exitX=0.5;exitY=0;exitDx=0;exitDy=0;endArrow=block;endFill=0;labelBackgroundColor=#DAD2D8;strokeColor=#A8201A;fontColor=#143642;" parent="WIyWlLk6GJQsqaUBKTNV-1" edge="1"><mxGeometry relative="1" as="geometry"><mxPoint x="1315" y="1900" as="targetPoint"/><mxPoint x="1560" y="2000" as="sourcePoint"/><Array as="points"><mxPoint x="1560" y="1950"/><mxPoint x="1315" y="1950"/></Array></mxGeometry></mxCell><mxCell id="cKhNgOHziQ-rXU9oQnhB-223" value="Tomatoes" style="swimlane;fontStyle=1;align=center;verticalAlign=top;childLayout=stackLayout;horizontal=1;startSize=26;horizontalStack=0;resizeParent=1;resizeParentMax=0;resizeLast=0;collapsible=1;marginBottom=0;strokeColor=#0F8B8D;fillColor=#FAE5C7;fontColor=#143642;" parent="WIyWlLk6GJQsqaUBKTNV-1" vertex="1"><mxGeometry x="1470" y="2000" width="170" height="170" as="geometry"/></mxCell><mxCell id="cKhNgOHziQ-rXU9oQnhB-224" value="-NameOfTomatoes:String&#10;-CostOfTomatoes: double" style="text;strokeColor=#0F8B8D;fillColor=#FAE5C7;align=left;verticalAlign=top;spacingLeft=4;spacingRight=4;overflow=hidden;rotatable=0;points=[[0,0.5],[1,0.5]];portConstraint=eastwest;fontColor=#143642;" parent="cKhNgOHziQ-rXU9oQnhB-223" vertex="1"><mxGeometry y="26" width="170" height="84" as="geometry"/></mxCell><mxCell id="cKhNgOHziQ-rXU9oQnhB-225" value="" style="line;strokeWidth=1;fillColor=none;align=left;verticalAlign=middle;spacingTop=-1;spacingLeft=3;spacingRight=3;rotatable=0;labelPosition=right;points=[];portConstraint=eastwest;labelBackgroundColor=#DAD2D8;strokeColor=#0F8B8D;fontColor=#143642;" parent="cKhNgOHziQ-rXU9oQnhB-223" vertex="1"><mxGeometry y="110" width="170" height="8" as="geometry"/></mxCell><mxCell id="cKhNgOHziQ-rXU9oQnhB-226" value="+getName(): String&#10;+getCost(): double" style="text;strokeColor=#0F8B8D;fillColor=#FAE5C7;align=left;verticalAlign=top;spacingLeft=4;spacingRight=4;overflow=hidden;rotatable=0;points=[[0,0.5],[1,0.5]];portConstraint=eastwest;fontColor=#143642;" parent="cKhNgOHziQ-rXU9oQnhB-223" vertex="1"><mxGeometry y="118" width="170" height="52" as="geometry"/></mxCell><mxCell id="cKhNgOHziQ-rXU9oQnhB-258" style="edgeStyle=orthogonalEdgeStyle;rounded=0;orthogonalLoop=1;jettySize=auto;html=1;exitX=0.5;exitY=0;exitDx=0;exitDy=0;endArrow=none;endFill=0;labelBackgroundColor=#DAD2D8;strokeColor=#A8201A;fontColor=#143642;" parent="WIyWlLk6GJQsqaUBKTNV-1" edge="1"><mxGeometry relative="1" as="geometry"><mxPoint x="1317" y="1300" as="targetPoint"/><mxPoint x="2295" y="1751" as="sourcePoint"/><Array as="points"><mxPoint x="2302" y="1751"/><mxPoint x="2302" y="1310"/><mxPoint x="1317" y="1310"/></Array></mxGeometry></mxCell><mxCell id="3" style="edgeStyle=orthogonalEdgeStyle;curved=0;rounded=1;sketch=0;orthogonalLoop=1;jettySize=auto;html=1;exitX=0.5;exitY=0;exitDx=0;exitDy=0;fontColor=#143642;endArrow=none;endFill=0;strokeColor=#A8201A;fillColor=#FAE5C7;" parent="WIyWlLk6GJQsqaUBKTNV-1" source="cKhNgOHziQ-rXU9oQnhB-259" edge="1"><mxGeometry relative="1" as="geometry"><mxPoint x="1278.0001831054688" y="745.3333740234375" as="targetPoint"/></mxGeometry></mxCell><mxCell id="cKhNgOHziQ-rXU9oQnhB-259" value="Topping" style="swimlane;fontStyle=3;align=center;verticalAlign=top;childLayout=stackLayout;horizontal=1;startSize=26;horizontalStack=0;resizeParent=1;resizeParentMax=0;resizeLast=0;collapsible=1;marginBottom=0;strokeColor=#0F8B8D;fillColor=#FAE5C7;fontColor=#143642;" parent="WIyWlLk6GJQsqaUBKTNV-1" vertex="1"><mxGeometry x="2705" y="628" width="170" height="130" as="geometry"/></mxCell><mxCell id="cKhNgOHziQ-rXU9oQnhB-260" value="-NameOfTopping: String&#10;-QuantityOfTopping: int" style="text;strokeColor=#0F8B8D;fillColor=#FAE5C7;align=left;verticalAlign=top;spacingLeft=4;spacingRight=4;overflow=hidden;rotatable=0;points=[[0,0.5],[1,0.5]];portConstraint=eastwest;fontColor=#143642;" parent="cKhNgOHziQ-rXU9oQnhB-259" vertex="1"><mxGeometry y="26" width="170" height="44" as="geometry"/></mxCell><mxCell id="cKhNgOHziQ-rXU9oQnhB-261" value="" style="line;strokeWidth=1;fillColor=none;align=left;verticalAlign=middle;spacingTop=-1;spacingLeft=3;spacingRight=3;rotatable=0;labelPosition=right;points=[];portConstraint=eastwest;labelBackgroundColor=#DAD2D8;strokeColor=#0F8B8D;fontColor=#143642;" parent="cKhNgOHziQ-rXU9oQnhB-259" vertex="1"><mxGeometry y="70" width="170" height="8" as="geometry"/></mxCell><mxCell id="cKhNgOHziQ-rXU9oQnhB-262" value="+getName(): String&#10;+getCost(): double" style="text;strokeColor=#0F8B8D;fillColor=#FAE5C7;align=left;verticalAlign=top;spacingLeft=4;spacingRight=4;overflow=hidden;rotatable=0;points=[[0,0.5],[1,0.5]];portConstraint=eastwest;fontColor=#143642;" parent="cKhNgOHziQ-rXU9oQnhB-259" vertex="1"><mxGeometry y="78" width="170" height="52" as="geometry"/></mxCell><mxCell id="cKhNgOHziQ-rXU9oQnhB-288" style="edgeStyle=orthogonalEdgeStyle;rounded=0;orthogonalLoop=1;jettySize=auto;html=1;exitX=0.806;exitY=0.133;exitDx=0;exitDy=0;endArrow=none;endFill=0;exitPerimeter=0;labelBackgroundColor=#DAD2D8;strokeColor=#A8201A;fontColor=#143642;" parent="WIyWlLk6GJQsqaUBKTNV-1" source="cKhNgOHziQ-rXU9oQnhB-289" edge="1"><mxGeometry relative="1" as="geometry"><mxPoint x="2792" y="778" as="targetPoint"/><mxPoint x="2791" y="1228" as="sourcePoint"/><Array as="points"><mxPoint x="2745" y="1088"/><mxPoint x="2745" y="933"/><mxPoint x="2792" y="933"/></Array></mxGeometry></mxCell><mxCell id="cKhNgOHziQ-rXU9oQnhB-289" value="Spread" style="swimlane;fontStyle=3;align=center;verticalAlign=top;childLayout=stackLayout;horizontal=1;startSize=26;horizontalStack=0;resizeParent=1;resizeParentMax=0;resizeLast=0;collapsible=1;marginBottom=0;strokeColor=#0F8B8D;fillColor=#FAE5C7;fontColor=#143642;" parent="WIyWlLk6GJQsqaUBKTNV-1" vertex="1"><mxGeometry x="2655" y="1068" width="170" height="150" as="geometry"/></mxCell><mxCell id="cKhNgOHziQ-rXU9oQnhB-290" value="-NameOfSpread: String&#10;" style="text;strokeColor=#0F8B8D;fillColor=#FAE5C7;align=left;verticalAlign=top;spacingLeft=4;spacingRight=4;overflow=hidden;rotatable=0;points=[[0,0.5],[1,0.5]];portConstraint=eastwest;fontColor=#143642;" parent="cKhNgOHziQ-rXU9oQnhB-289" vertex="1"><mxGeometry y="26" width="170" height="64" as="geometry"/></mxCell><mxCell id="cKhNgOHziQ-rXU9oQnhB-291" value="" style="line;strokeWidth=1;fillColor=none;align=left;verticalAlign=middle;spacingTop=-1;spacingLeft=3;spacingRight=3;rotatable=0;labelPosition=right;points=[];portConstraint=eastwest;labelBackgroundColor=#DAD2D8;strokeColor=#0F8B8D;fontColor=#143642;" parent="cKhNgOHziQ-rXU9oQnhB-289" vertex="1"><mxGeometry y="90" width="170" height="8" as="geometry"/></mxCell><mxCell id="cKhNgOHziQ-rXU9oQnhB-292" value="+getName(): String&#10;+getCost(): double" style="text;strokeColor=#0F8B8D;fillColor=#FAE5C7;align=left;verticalAlign=top;spacingLeft=4;spacingRight=4;overflow=hidden;rotatable=0;points=[[0,0.5],[1,0.5]];portConstraint=eastwest;fontColor=#143642;" parent="cKhNgOHziQ-rXU9oQnhB-289" vertex="1"><mxGeometry y="98" width="170" height="52" as="geometry"/></mxCell><mxCell id="cKhNgOHziQ-rXU9oQnhB-293" style="edgeStyle=orthogonalEdgeStyle;rounded=0;orthogonalLoop=1;jettySize=auto;html=1;endArrow=classic;endFill=1;labelBackgroundColor=#DAD2D8;strokeColor=#A8201A;fontColor=#143642;exitX=0.495;exitY=0.097;exitDx=0;exitDy=0;exitPerimeter=0;" parent="WIyWlLk6GJQsqaUBKTNV-1" source="7" edge="1"><mxGeometry relative="1" as="geometry"><mxPoint x="2792" y="758" as="targetPoint"/><mxPoint x="3236" y="795" as="sourcePoint"/><Array as="points"><mxPoint x="3235" y="788"/><mxPoint x="2792" y="788"/></Array></mxGeometry></mxCell><mxCell id="cKhNgOHziQ-rXU9oQnhB-294" value="Fruit" style="swimlane;fontStyle=3;align=center;verticalAlign=top;childLayout=stackLayout;horizontal=1;startSize=26;horizontalStack=0;resizeParent=1;resizeParentMax=0;resizeLast=0;collapsible=1;marginBottom=0;strokeColor=#0F8B8D;fillColor=#FAE5C7;fontColor=#143642;" parent="WIyWlLk6GJQsqaUBKTNV-1" vertex="1"><mxGeometry x="2219" y="1747" width="170" height="160" as="geometry"/></mxCell><mxCell id="cKhNgOHziQ-rXU9oQnhB-295" value="-NameOfFruit:String&#10;-CostOfFruit: double" style="text;strokeColor=#0F8B8D;fillColor=#FAE5C7;align=left;verticalAlign=top;spacingLeft=4;spacingRight=4;overflow=hidden;rotatable=0;points=[[0,0.5],[1,0.5]];portConstraint=eastwest;fontColor=#143642;" parent="cKhNgOHziQ-rXU9oQnhB-294" vertex="1"><mxGeometry y="26" width="170" height="74" as="geometry"/></mxCell><mxCell id="cKhNgOHziQ-rXU9oQnhB-296" value="" style="line;strokeWidth=1;fillColor=none;align=left;verticalAlign=middle;spacingTop=-1;spacingLeft=3;spacingRight=3;rotatable=0;labelPosition=right;points=[];portConstraint=eastwest;labelBackgroundColor=#DAD2D8;strokeColor=#0F8B8D;fontColor=#143642;" parent="cKhNgOHziQ-rXU9oQnhB-294" vertex="1"><mxGeometry y="100" width="170" height="8" as="geometry"/></mxCell><mxCell id="cKhNgOHziQ-rXU9oQnhB-297" value="+getName(): String&#10;+getCost(): double" style="text;strokeColor=#0F8B8D;fillColor=#FAE5C7;align=left;verticalAlign=top;spacingLeft=4;spacingRight=4;overflow=hidden;rotatable=0;points=[[0,0.5],[1,0.5]];portConstraint=eastwest;fontColor=#143642;" parent="cKhNgOHziQ-rXU9oQnhB-294" vertex="1"><mxGeometry y="108" width="170" height="52" as="geometry"/></mxCell><mxCell id="cKhNgOHziQ-rXU9oQnhB-298" style="edgeStyle=orthogonalEdgeStyle;rounded=0;orthogonalLoop=1;jettySize=auto;html=1;exitX=0.5;exitY=0;exitDx=0;exitDy=0;endArrow=block;endFill=0;labelBackgroundColor=#DAD2D8;strokeColor=#A8201A;fontColor=#143642;" parent="WIyWlLk6GJQsqaUBKTNV-1" source="cKhNgOHziQ-rXU9oQnhB-299" edge="1"><mxGeometry relative="1" as="geometry"><mxPoint x="2299" y="1909" as="targetPoint"/></mxGeometry></mxCell><mxCell id="cKhNgOHziQ-rXU9oQnhB-299" value="Grape" style="swimlane;fontStyle=1;align=center;verticalAlign=top;childLayout=stackLayout;horizontal=1;startSize=26;horizontalStack=0;resizeParent=1;resizeParentMax=0;resizeLast=0;collapsible=1;marginBottom=0;strokeColor=#0F8B8D;fillColor=#FAE5C7;fontColor=#143642;" parent="WIyWlLk6GJQsqaUBKTNV-1" vertex="1"><mxGeometry x="2009" y="2019" width="170" height="170" as="geometry"/></mxCell><mxCell id="cKhNgOHziQ-rXU9oQnhB-300" value="-NameOfGrapes:String&#10;-CostOfGrapes: double" style="text;strokeColor=#0F8B8D;fillColor=#FAE5C7;align=left;verticalAlign=top;spacingLeft=4;spacingRight=4;overflow=hidden;rotatable=0;points=[[0,0.5],[1,0.5]];portConstraint=eastwest;fontColor=#143642;" parent="cKhNgOHziQ-rXU9oQnhB-299" vertex="1"><mxGeometry y="26" width="170" height="84" as="geometry"/></mxCell><mxCell id="cKhNgOHziQ-rXU9oQnhB-301" value="" style="line;strokeWidth=1;fillColor=none;align=left;verticalAlign=middle;spacingTop=-1;spacingLeft=3;spacingRight=3;rotatable=0;labelPosition=right;points=[];portConstraint=eastwest;labelBackgroundColor=#DAD2D8;strokeColor=#0F8B8D;fontColor=#143642;" parent="cKhNgOHziQ-rXU9oQnhB-299" vertex="1"><mxGeometry y="110" width="170" height="8" as="geometry"/></mxCell><mxCell id="cKhNgOHziQ-rXU9oQnhB-302" value="+getName(): String&#10;+getCost(): double" style="text;strokeColor=#0F8B8D;fillColor=#FAE5C7;align=left;verticalAlign=top;spacingLeft=4;spacingRight=4;overflow=hidden;rotatable=0;points=[[0,0.5],[1,0.5]];portConstraint=eastwest;fontColor=#143642;" parent="cKhNgOHziQ-rXU9oQnhB-299" vertex="1"><mxGeometry y="118" width="170" height="52" as="geometry"/></mxCell><mxCell id="cKhNgOHziQ-rXU9oQnhB-303" style="edgeStyle=orthogonalEdgeStyle;rounded=0;orthogonalLoop=1;jettySize=auto;html=1;exitX=0.5;exitY=0;exitDx=0;exitDy=0;endArrow=block;endFill=0;labelBackgroundColor=#DAD2D8;strokeColor=#A8201A;fontColor=#143642;" parent="WIyWlLk6GJQsqaUBKTNV-1" source="cKhNgOHziQ-rXU9oQnhB-304" edge="1"><mxGeometry relative="1" as="geometry"><mxPoint x="2299" y="1909" as="targetPoint"/></mxGeometry></mxCell><mxCell id="cKhNgOHziQ-rXU9oQnhB-304" value="Cherry" style="swimlane;fontStyle=1;align=center;verticalAlign=top;childLayout=stackLayout;horizontal=1;startSize=26;horizontalStack=0;resizeParent=1;resizeParentMax=0;resizeLast=0;collapsible=1;marginBottom=0;strokeColor=#0F8B8D;fillColor=#FAE5C7;fontColor=#143642;" parent="WIyWlLk6GJQsqaUBKTNV-1" vertex="1"><mxGeometry x="2189" y="2019" width="170" height="170" as="geometry"/></mxCell><mxCell id="cKhNgOHziQ-rXU9oQnhB-305" value="-NameOfCherries:String&#10;-CostOfCherries: double" style="text;strokeColor=#0F8B8D;fillColor=#FAE5C7;align=left;verticalAlign=top;spacingLeft=4;spacingRight=4;overflow=hidden;rotatable=0;points=[[0,0.5],[1,0.5]];portConstraint=eastwest;fontColor=#143642;" parent="cKhNgOHziQ-rXU9oQnhB-304" vertex="1"><mxGeometry y="26" width="170" height="84" as="geometry"/></mxCell><mxCell id="cKhNgOHziQ-rXU9oQnhB-306" value="" style="line;strokeWidth=1;fillColor=none;align=left;verticalAlign=middle;spacingTop=-1;spacingLeft=3;spacingRight=3;rotatable=0;labelPosition=right;points=[];portConstraint=eastwest;labelBackgroundColor=#DAD2D8;strokeColor=#0F8B8D;fontColor=#143642;" parent="cKhNgOHziQ-rXU9oQnhB-304" vertex="1"><mxGeometry y="110" width="170" height="8" as="geometry"/></mxCell><mxCell id="cKhNgOHziQ-rXU9oQnhB-307" value="+getName(): String&#10;+getCost(): double" style="text;strokeColor=#0F8B8D;fillColor=#FAE5C7;align=left;verticalAlign=top;spacingLeft=4;spacingRight=4;overflow=hidden;rotatable=0;points=[[0,0.5],[1,0.5]];portConstraint=eastwest;fontColor=#143642;" parent="cKhNgOHziQ-rXU9oQnhB-304" vertex="1"><mxGeometry y="118" width="170" height="52" as="geometry"/></mxCell><mxCell id="cKhNgOHziQ-rXU9oQnhB-308" style="edgeStyle=orthogonalEdgeStyle;rounded=0;orthogonalLoop=1;jettySize=auto;html=1;exitX=0.5;exitY=0;exitDx=0;exitDy=0;endArrow=block;endFill=0;labelBackgroundColor=#DAD2D8;strokeColor=#A8201A;fontColor=#143642;" parent="WIyWlLk6GJQsqaUBKTNV-1" source="cKhNgOHziQ-rXU9oQnhB-309" edge="1"><mxGeometry relative="1" as="geometry"><mxPoint x="2299" y="1909" as="targetPoint"/></mxGeometry></mxCell><mxCell id="cKhNgOHziQ-rXU9oQnhB-309" value="Apple" style="swimlane;fontStyle=1;align=center;verticalAlign=top;childLayout=stackLayout;horizontal=1;startSize=26;horizontalStack=0;resizeParent=1;resizeParentMax=0;resizeLast=0;collapsible=1;marginBottom=0;strokeColor=#0F8B8D;fillColor=#FAE5C7;fontColor=#143642;" parent="WIyWlLk6GJQsqaUBKTNV-1" vertex="1"><mxGeometry x="2369" y="2019" width="170" height="170" as="geometry"/></mxCell><mxCell id="cKhNgOHziQ-rXU9oQnhB-310" value="-NameOfApples:String&#10;-CostOfApples: double" style="text;strokeColor=#0F8B8D;fillColor=#FAE5C7;align=left;verticalAlign=top;spacingLeft=4;spacingRight=4;overflow=hidden;rotatable=0;points=[[0,0.5],[1,0.5]];portConstraint=eastwest;fontColor=#143642;" parent="cKhNgOHziQ-rXU9oQnhB-309" vertex="1"><mxGeometry y="26" width="170" height="84" as="geometry"/></mxCell><mxCell id="cKhNgOHziQ-rXU9oQnhB-311" value="" style="line;strokeWidth=1;fillColor=none;align=left;verticalAlign=middle;spacingTop=-1;spacingLeft=3;spacingRight=3;rotatable=0;labelPosition=right;points=[];portConstraint=eastwest;labelBackgroundColor=#DAD2D8;strokeColor=#0F8B8D;fontColor=#143642;" parent="cKhNgOHziQ-rXU9oQnhB-309" vertex="1"><mxGeometry y="110" width="170" height="8" as="geometry"/></mxCell><mxCell id="cKhNgOHziQ-rXU9oQnhB-312" value="+getName(): String&#10;+getCost(): double" style="text;strokeColor=#0F8B8D;fillColor=#FAE5C7;align=left;verticalAlign=top;spacingLeft=4;spacingRight=4;overflow=hidden;rotatable=0;points=[[0,0.5],[1,0.5]];portConstraint=eastwest;fontColor=#143642;" parent="cKhNgOHziQ-rXU9oQnhB-309" vertex="1"><mxGeometry y="118" width="170" height="52" as="geometry"/></mxCell><mxCell id="cKhNgOHziQ-rXU9oQnhB-313" style="edgeStyle=orthogonalEdgeStyle;rounded=0;orthogonalLoop=1;jettySize=auto;html=1;exitX=0.5;exitY=0;exitDx=0;exitDy=0;endArrow=block;endFill=0;labelBackgroundColor=#DAD2D8;strokeColor=#A8201A;fontColor=#143642;" parent="WIyWlLk6GJQsqaUBKTNV-1" source="cKhNgOHziQ-rXU9oQnhB-314" edge="1"><mxGeometry relative="1" as="geometry"><mxPoint x="2299" y="1909" as="targetPoint"/></mxGeometry></mxCell><mxCell id="cKhNgOHziQ-rXU9oQnhB-314" value="Fig" style="swimlane;fontStyle=1;align=center;verticalAlign=top;childLayout=stackLayout;horizontal=1;startSize=26;horizontalStack=0;resizeParent=1;resizeParentMax=0;resizeLast=0;collapsible=1;marginBottom=0;strokeColor=#0F8B8D;fillColor=#FAE5C7;fontColor=#143642;" parent="WIyWlLk6GJQsqaUBKTNV-1" vertex="1"><mxGeometry x="2549" y="2019" width="170" height="170" as="geometry"/></mxCell><mxCell id="cKhNgOHziQ-rXU9oQnhB-315" value="-NameOfFigs:String&#10;-CostOfFigs: double" style="text;strokeColor=#0F8B8D;fillColor=#FAE5C7;align=left;verticalAlign=top;spacingLeft=4;spacingRight=4;overflow=hidden;rotatable=0;points=[[0,0.5],[1,0.5]];portConstraint=eastwest;fontColor=#143642;" parent="cKhNgOHziQ-rXU9oQnhB-314" vertex="1"><mxGeometry y="26" width="170" height="84" as="geometry"/></mxCell><mxCell id="cKhNgOHziQ-rXU9oQnhB-316" value="" style="line;strokeWidth=1;fillColor=none;align=left;verticalAlign=middle;spacingTop=-1;spacingLeft=3;spacingRight=3;rotatable=0;labelPosition=right;points=[];portConstraint=eastwest;labelBackgroundColor=#DAD2D8;strokeColor=#0F8B8D;fontColor=#143642;" parent="cKhNgOHziQ-rXU9oQnhB-314" vertex="1"><mxGeometry y="110" width="170" height="8" as="geometry"/></mxCell><mxCell id="cKhNgOHziQ-rXU9oQnhB-317" value="+ approved(): boolean" style="text;strokeColor=#0F8B8D;fillColor=#FAE5C7;align=left;verticalAlign=top;spacingLeft=4;spacingRight=4;overflow=hidden;rotatable=0;points=[[0,0.5],[1,0.5]];portConstraint=eastwest;fontColor=#143642;" parent="cKhNgOHziQ-rXU9oQnhB-314" vertex="1"><mxGeometry y="118" width="170" height="52" as="geometry"/></mxCell><mxCell id="cKhNgOHziQ-rXU9oQnhB-318" style="edgeStyle=orthogonalEdgeStyle;rounded=0;orthogonalLoop=1;jettySize=auto;html=1;exitX=0.5;exitY=0;exitDx=0;exitDy=0;entryX=0.5;entryY=1;entryDx=0;entryDy=0;endArrow=block;endFill=0;labelBackgroundColor=#DAD2D8;strokeColor=#A8201A;fontColor=#143642;" parent="WIyWlLk6GJQsqaUBKTNV-1" source="cKhNgOHziQ-rXU9oQnhB-319" target="cKhNgOHziQ-rXU9oQnhB-289" edge="1"><mxGeometry relative="1" as="geometry"/></mxCell><mxCell id="cKhNgOHziQ-rXU9oQnhB-319" value="FigJam" style="swimlane;fontStyle=1;align=center;verticalAlign=top;childLayout=stackLayout;horizontal=1;startSize=26;horizontalStack=0;resizeParent=1;resizeParentMax=0;resizeLast=0;collapsible=1;marginBottom=0;strokeColor=#0F8B8D;fillColor=#FAE5C7;fontColor=#143642;" parent="WIyWlLk6GJQsqaUBKTNV-1" vertex="1"><mxGeometry x="2355" y="1318" width="170" height="170" as="geometry"/></mxCell><mxCell id="cKhNgOHziQ-rXU9oQnhB-320" value="-NameOfFigJam:String&#10;-CostOfFigJam: double" style="text;strokeColor=#0F8B8D;fillColor=#FAE5C7;align=left;verticalAlign=top;spacingLeft=4;spacingRight=4;overflow=hidden;rotatable=0;points=[[0,0.5],[1,0.5]];portConstraint=eastwest;fontColor=#143642;" parent="cKhNgOHziQ-rXU9oQnhB-319" vertex="1"><mxGeometry y="26" width="170" height="84" as="geometry"/></mxCell><mxCell id="cKhNgOHziQ-rXU9oQnhB-321" value="" style="line;strokeWidth=1;fillColor=none;align=left;verticalAlign=middle;spacingTop=-1;spacingLeft=3;spacingRight=3;rotatable=0;labelPosition=right;points=[];portConstraint=eastwest;labelBackgroundColor=#DAD2D8;strokeColor=#0F8B8D;fontColor=#143642;" parent="cKhNgOHziQ-rXU9oQnhB-319" vertex="1"><mxGeometry y="110" width="170" height="8" as="geometry"/></mxCell><mxCell id="cKhNgOHziQ-rXU9oQnhB-322" value="+getName(): String&#10;+getCost(): double" style="text;strokeColor=#0F8B8D;fillColor=#FAE5C7;align=left;verticalAlign=top;spacingLeft=4;spacingRight=4;overflow=hidden;rotatable=0;points=[[0,0.5],[1,0.5]];portConstraint=eastwest;fontColor=#143642;" parent="cKhNgOHziQ-rXU9oQnhB-319" vertex="1"><mxGeometry y="118" width="170" height="52" as="geometry"/></mxCell><mxCell id="cKhNgOHziQ-rXU9oQnhB-323" style="edgeStyle=orthogonalEdgeStyle;rounded=0;orthogonalLoop=1;jettySize=auto;html=1;exitX=0.5;exitY=0;exitDx=0;exitDy=0;endArrow=none;endFill=0;labelBackgroundColor=#DAD2D8;strokeColor=#A8201A;fontColor=#143642;" parent="WIyWlLk6GJQsqaUBKTNV-1" source="cKhNgOHziQ-rXU9oQnhB-324" edge="1"><mxGeometry relative="1" as="geometry"><mxPoint x="2620" y="1268" as="targetPoint"/></mxGeometry></mxCell><mxCell id="cKhNgOHziQ-rXU9oQnhB-324" value="RaspberryJam" style="swimlane;fontStyle=1;align=center;verticalAlign=top;childLayout=stackLayout;horizontal=1;startSize=26;horizontalStack=0;resizeParent=1;resizeParentMax=0;resizeLast=0;collapsible=1;marginBottom=0;strokeColor=#0F8B8D;fillColor=#FAE5C7;fontColor=#143642;" parent="WIyWlLk6GJQsqaUBKTNV-1" vertex="1"><mxGeometry x="2535" y="1318" width="170" height="170" as="geometry"/></mxCell><mxCell id="cKhNgOHziQ-rXU9oQnhB-325" value="-NameOfRaspberryJam:String&#10;-CostOfRaspberryJam: double" style="text;strokeColor=#0F8B8D;fillColor=#FAE5C7;align=left;verticalAlign=top;spacingLeft=4;spacingRight=4;overflow=hidden;rotatable=0;points=[[0,0.5],[1,0.5]];portConstraint=eastwest;fontColor=#143642;" parent="cKhNgOHziQ-rXU9oQnhB-324" vertex="1"><mxGeometry y="26" width="170" height="84" as="geometry"/></mxCell><mxCell id="cKhNgOHziQ-rXU9oQnhB-326" value="" style="line;strokeWidth=1;fillColor=none;align=left;verticalAlign=middle;spacingTop=-1;spacingLeft=3;spacingRight=3;rotatable=0;labelPosition=right;points=[];portConstraint=eastwest;labelBackgroundColor=#DAD2D8;strokeColor=#0F8B8D;fontColor=#143642;" parent="cKhNgOHziQ-rXU9oQnhB-324" vertex="1"><mxGeometry y="110" width="170" height="8" as="geometry"/></mxCell><mxCell id="cKhNgOHziQ-rXU9oQnhB-327" value="+getName(): String&#10;+getCost(): double" style="text;strokeColor=#0F8B8D;fillColor=#FAE5C7;align=left;verticalAlign=top;spacingLeft=4;spacingRight=4;overflow=hidden;rotatable=0;points=[[0,0.5],[1,0.5]];portConstraint=eastwest;fontColor=#143642;" parent="cKhNgOHziQ-rXU9oQnhB-324" vertex="1"><mxGeometry y="118" width="170" height="52" as="geometry"/></mxCell><mxCell id="cKhNgOHziQ-rXU9oQnhB-328" style="edgeStyle=orthogonalEdgeStyle;rounded=0;orthogonalLoop=1;jettySize=auto;html=1;exitX=0.5;exitY=0;exitDx=0;exitDy=0;endArrow=none;endFill=0;labelBackgroundColor=#DAD2D8;strokeColor=#A8201A;fontColor=#143642;" parent="WIyWlLk6GJQsqaUBKTNV-1" source="cKhNgOHziQ-rXU9oQnhB-329" edge="1"><mxGeometry relative="1" as="geometry"><mxPoint x="2800" y="1268" as="targetPoint"/></mxGeometry></mxCell><mxCell id="cKhNgOHziQ-rXU9oQnhB-329" value="BlackberryJam" style="swimlane;fontStyle=1;align=center;verticalAlign=top;childLayout=stackLayout;horizontal=1;startSize=26;horizontalStack=0;resizeParent=1;resizeParentMax=0;resizeLast=0;collapsible=1;marginBottom=0;strokeColor=#0F8B8D;fillColor=#FAE5C7;fontColor=#143642;" parent="WIyWlLk6GJQsqaUBKTNV-1" vertex="1"><mxGeometry x="2715" y="1318" width="174" height="170" as="geometry"/></mxCell><mxCell id="cKhNgOHziQ-rXU9oQnhB-330" value="-NameOfBlackberryJam:String&#10;-CostOfBlackBerryJam: double" style="text;strokeColor=#0F8B8D;fillColor=#FAE5C7;align=left;verticalAlign=top;spacingLeft=4;spacingRight=4;overflow=hidden;rotatable=0;points=[[0,0.5],[1,0.5]];portConstraint=eastwest;fontColor=#143642;" parent="cKhNgOHziQ-rXU9oQnhB-329" vertex="1"><mxGeometry y="26" width="174" height="84" as="geometry"/></mxCell><mxCell id="cKhNgOHziQ-rXU9oQnhB-331" value="" style="line;strokeWidth=1;fillColor=none;align=left;verticalAlign=middle;spacingTop=-1;spacingLeft=3;spacingRight=3;rotatable=0;labelPosition=right;points=[];portConstraint=eastwest;labelBackgroundColor=#DAD2D8;strokeColor=#0F8B8D;fontColor=#143642;" parent="cKhNgOHziQ-rXU9oQnhB-329" vertex="1"><mxGeometry y="110" width="174" height="8" as="geometry"/></mxCell><mxCell id="cKhNgOHziQ-rXU9oQnhB-332" value="+getName(): String&#10;+getCost(): double" style="text;strokeColor=#0F8B8D;fillColor=#FAE5C7;align=left;verticalAlign=top;spacingLeft=4;spacingRight=4;overflow=hidden;rotatable=0;points=[[0,0.5],[1,0.5]];portConstraint=eastwest;fontColor=#143642;" parent="cKhNgOHziQ-rXU9oQnhB-329" vertex="1"><mxGeometry y="118" width="174" height="52" as="geometry"/></mxCell><mxCell id="cKhNgOHziQ-rXU9oQnhB-333" style="edgeStyle=orthogonalEdgeStyle;rounded=0;orthogonalLoop=1;jettySize=auto;html=1;exitX=0.5;exitY=0;exitDx=0;exitDy=0;endArrow=block;endFill=0;labelBackgroundColor=#DAD2D8;strokeColor=#A8201A;fontColor=#143642;" parent="WIyWlLk6GJQsqaUBKTNV-1" edge="1"><mxGeometry relative="1" as="geometry"><mxPoint x="2740" y="1218" as="targetPoint"/><mxPoint x="2985" y="1318" as="sourcePoint"/><Array as="points"><mxPoint x="2985" y="1268"/><mxPoint x="2740" y="1268"/></Array></mxGeometry></mxCell><mxCell id="cKhNgOHziQ-rXU9oQnhB-334" value="OrangeMarmelade" style="swimlane;fontStyle=1;align=center;verticalAlign=top;childLayout=stackLayout;horizontal=1;startSize=26;horizontalStack=0;resizeParent=1;resizeParentMax=0;resizeLast=0;collapsible=1;marginBottom=0;strokeColor=#0F8B8D;fillColor=#FAE5C7;fontColor=#143642;" parent="WIyWlLk6GJQsqaUBKTNV-1" vertex="1"><mxGeometry x="2895" y="1318" width="197" height="170" as="geometry"/></mxCell><mxCell id="cKhNgOHziQ-rXU9oQnhB-335" value="-NameOfOrangeMarmelade:String&#10;-CostOfOrangeMarmelade: double" style="text;strokeColor=#0F8B8D;fillColor=#FAE5C7;align=left;verticalAlign=top;spacingLeft=4;spacingRight=4;overflow=hidden;rotatable=0;points=[[0,0.5],[1,0.5]];portConstraint=eastwest;fontColor=#143642;" parent="cKhNgOHziQ-rXU9oQnhB-334" vertex="1"><mxGeometry y="26" width="197" height="84" as="geometry"/></mxCell><mxCell id="cKhNgOHziQ-rXU9oQnhB-336" value="" style="line;strokeWidth=1;fillColor=none;align=left;verticalAlign=middle;spacingTop=-1;spacingLeft=3;spacingRight=3;rotatable=0;labelPosition=right;points=[];portConstraint=eastwest;labelBackgroundColor=#DAD2D8;strokeColor=#0F8B8D;fontColor=#143642;" parent="cKhNgOHziQ-rXU9oQnhB-334" vertex="1"><mxGeometry y="110" width="197" height="8" as="geometry"/></mxCell><mxCell id="cKhNgOHziQ-rXU9oQnhB-337" value="+getName(): String&#10;+getCost(): double" style="text;strokeColor=#0F8B8D;fillColor=#FAE5C7;align=left;verticalAlign=top;spacingLeft=4;spacingRight=4;overflow=hidden;rotatable=0;points=[[0,0.5],[1,0.5]];portConstraint=eastwest;fontColor=#143642;" parent="cKhNgOHziQ-rXU9oQnhB-334" vertex="1"><mxGeometry y="118" width="197" height="52" as="geometry"/></mxCell><mxCell id="4" style="edgeStyle=orthogonalEdgeStyle;curved=0;rounded=1;sketch=0;orthogonalLoop=1;jettySize=auto;html=1;exitX=0.5;exitY=0;exitDx=0;exitDy=0;fontColor=#143642;endArrow=none;endFill=0;strokeColor=#A8201A;fillColor=#FAE5C7;" parent="WIyWlLk6GJQsqaUBKTNV-1" edge="1"><mxGeometry relative="1" as="geometry"><mxPoint x="1996" y="715" as="targetPoint"/><mxPoint x="4115" y="798" as="sourcePoint"/><Array as="points"><mxPoint x="4115" y="608"/><mxPoint x="1996" y="608"/></Array></mxGeometry></mxCell><mxCell id="cKhNgOHziQ-rXU9oQnhB-368" value="Crackers" style="swimlane;fontStyle=3;align=center;verticalAlign=top;childLayout=stackLayout;horizontal=1;startSize=26;horizontalStack=0;resizeParent=1;resizeParentMax=0;resizeLast=0;collapsible=1;marginBottom=0;strokeColor=#0F8B8D;fillColor=#FAE5C7;fontColor=#143642;" parent="WIyWlLk6GJQsqaUBKTNV-1" vertex="1"><mxGeometry x="4030" y="800" width="170" height="150" as="geometry"/></mxCell><mxCell id="cKhNgOHziQ-rXU9oQnhB-369" value="-NameOfCracker: String&#10;-QuantityOfCracker: int" style="text;strokeColor=#0F8B8D;fillColor=#FAE5C7;align=left;verticalAlign=top;spacingLeft=4;spacingRight=4;overflow=hidden;rotatable=0;points=[[0,0.5],[1,0.5]];portConstraint=eastwest;fontColor=#143642;" parent="cKhNgOHziQ-rXU9oQnhB-368" vertex="1"><mxGeometry y="26" width="170" height="64" as="geometry"/></mxCell><mxCell id="cKhNgOHziQ-rXU9oQnhB-370" value="" style="line;strokeWidth=1;fillColor=none;align=left;verticalAlign=middle;spacingTop=-1;spacingLeft=3;spacingRight=3;rotatable=0;labelPosition=right;points=[];portConstraint=eastwest;labelBackgroundColor=#DAD2D8;strokeColor=#0F8B8D;fontColor=#143642;" parent="cKhNgOHziQ-rXU9oQnhB-368" vertex="1"><mxGeometry y="90" width="170" height="8" as="geometry"/></mxCell><mxCell id="cKhNgOHziQ-rXU9oQnhB-371" value="+getName(): String&#10;+getCost(): double" style="text;strokeColor=#0F8B8D;fillColor=#FAE5C7;align=left;verticalAlign=top;spacingLeft=4;spacingRight=4;overflow=hidden;rotatable=0;points=[[0,0.5],[1,0.5]];portConstraint=eastwest;fontColor=#143642;" parent="cKhNgOHziQ-rXU9oQnhB-368" vertex="1"><mxGeometry y="98" width="170" height="52" as="geometry"/></mxCell><mxCell id="0" style="edgeStyle=orthogonalEdgeStyle;curved=0;rounded=1;sketch=0;orthogonalLoop=1;jettySize=auto;html=1;exitX=0.5;exitY=0;exitDx=0;exitDy=0;entryX=0;entryY=0.5;entryDx=0;entryDy=0;fontColor=#143642;strokeColor=#A8201A;fillColor=#FAE5C7;" parent="WIyWlLk6GJQsqaUBKTNV-1" source="cKhNgOHziQ-rXU9oQnhB-373" target="cKhNgOHziQ-rXU9oQnhB-13" edge="1"><mxGeometry relative="1" as="geometry"/></mxCell><mxCell id="cKhNgOHziQ-rXU9oQnhB-373" value="Meat" style="swimlane;fontStyle=3;align=center;verticalAlign=top;childLayout=stackLayout;horizontal=1;startSize=26;horizontalStack=0;resizeParent=1;resizeParentMax=0;resizeLast=0;collapsible=1;marginBottom=0;strokeColor=#0F8B8D;fillColor=#FAE5C7;fontColor=#143642;" parent="WIyWlLk6GJQsqaUBKTNV-1" vertex="1"><mxGeometry x="-1397" y="788" width="170" height="160" as="geometry"/></mxCell><mxCell id="cKhNgOHziQ-rXU9oQnhB-374" value="-NameOfVegs:String&#10;-CostOfVegs: double" style="text;strokeColor=#0F8B8D;fillColor=#FAE5C7;align=left;verticalAlign=top;spacingLeft=4;spacingRight=4;overflow=hidden;rotatable=0;points=[[0,0.5],[1,0.5]];portConstraint=eastwest;fontColor=#143642;" parent="cKhNgOHziQ-rXU9oQnhB-373" vertex="1"><mxGeometry y="26" width="170" height="74" as="geometry"/></mxCell><mxCell id="cKhNgOHziQ-rXU9oQnhB-375" value="" style="line;strokeWidth=1;fillColor=none;align=left;verticalAlign=middle;spacingTop=-1;spacingLeft=3;spacingRight=3;rotatable=0;labelPosition=right;points=[];portConstraint=eastwest;labelBackgroundColor=#DAD2D8;strokeColor=#0F8B8D;fontColor=#143642;" parent="cKhNgOHziQ-rXU9oQnhB-373" vertex="1"><mxGeometry y="100" width="170" height="8" as="geometry"/></mxCell><mxCell id="cKhNgOHziQ-rXU9oQnhB-376" value="+getName(): String&#10;+getCost(): double" style="text;strokeColor=#0F8B8D;fillColor=#FAE5C7;align=left;verticalAlign=top;spacingLeft=4;spacingRight=4;overflow=hidden;rotatable=0;points=[[0,0.5],[1,0.5]];portConstraint=eastwest;fontColor=#143642;" parent="cKhNgOHziQ-rXU9oQnhB-373" vertex="1"><mxGeometry y="108" width="170" height="52" as="geometry"/></mxCell><mxCell id="cKhNgOHziQ-rXU9oQnhB-377" style="edgeStyle=orthogonalEdgeStyle;rounded=0;orthogonalLoop=1;jettySize=auto;html=1;exitX=0.5;exitY=0;exitDx=0;exitDy=0;endArrow=block;endFill=0;labelBackgroundColor=#DAD2D8;strokeColor=#A8201A;fontColor=#143642;" parent="WIyWlLk6GJQsqaUBKTNV-1" source="cKhNgOHziQ-rXU9oQnhB-378" edge="1"><mxGeometry relative="1" as="geometry"><mxPoint x="-1317" y="950" as="targetPoint"/></mxGeometry></mxCell><mxCell id="cKhNgOHziQ-rXU9oQnhB-378" value="Salami" style="swimlane;fontStyle=1;align=center;verticalAlign=top;childLayout=stackLayout;horizontal=1;startSize=26;horizontalStack=0;resizeParent=1;resizeParentMax=0;resizeLast=0;collapsible=1;marginBottom=0;strokeColor=#0F8B8D;fillColor=#FAE5C7;fontColor=#143642;" parent="WIyWlLk6GJQsqaUBKTNV-1" vertex="1"><mxGeometry x="-1607" y="1060" width="170" height="170" as="geometry"/></mxCell><mxCell id="cKhNgOHziQ-rXU9oQnhB-379" value="-NameOfSalami:String&#10;-CostOfSalami: double" style="text;strokeColor=#0F8B8D;fillColor=#FAE5C7;align=left;verticalAlign=top;spacingLeft=4;spacingRight=4;overflow=hidden;rotatable=0;points=[[0,0.5],[1,0.5]];portConstraint=eastwest;fontColor=#143642;" parent="cKhNgOHziQ-rXU9oQnhB-378" vertex="1"><mxGeometry y="26" width="170" height="84" as="geometry"/></mxCell><mxCell id="cKhNgOHziQ-rXU9oQnhB-380" value="" style="line;strokeWidth=1;fillColor=none;align=left;verticalAlign=middle;spacingTop=-1;spacingLeft=3;spacingRight=3;rotatable=0;labelPosition=right;points=[];portConstraint=eastwest;labelBackgroundColor=#DAD2D8;strokeColor=#0F8B8D;fontColor=#143642;" parent="cKhNgOHziQ-rXU9oQnhB-378" vertex="1"><mxGeometry y="110" width="170" height="8" as="geometry"/></mxCell><mxCell id="cKhNgOHziQ-rXU9oQnhB-381" value="+getName(): String&#10;+getCost(): double" style="text;strokeColor=#0F8B8D;fillColor=#FAE5C7;align=left;verticalAlign=top;spacingLeft=4;spacingRight=4;overflow=hidden;rotatable=0;points=[[0,0.5],[1,0.5]];portConstraint=eastwest;fontColor=#143642;" parent="cKhNgOHziQ-rXU9oQnhB-378" vertex="1"><mxGeometry y="118" width="170" height="52" as="geometry"/></mxCell><mxCell id="cKhNgOHziQ-rXU9oQnhB-382" style="edgeStyle=orthogonalEdgeStyle;rounded=0;orthogonalLoop=1;jettySize=auto;html=1;exitX=0.5;exitY=0;exitDx=0;exitDy=0;endArrow=block;endFill=0;labelBackgroundColor=#DAD2D8;strokeColor=#A8201A;fontColor=#143642;" parent="WIyWlLk6GJQsqaUBKTNV-1" source="cKhNgOHziQ-rXU9oQnhB-383" edge="1"><mxGeometry relative="1" as="geometry"><mxPoint x="-1317" y="950" as="targetPoint"/></mxGeometry></mxCell><mxCell id="cKhNgOHziQ-rXU9oQnhB-383" value="Sopressata" style="swimlane;fontStyle=1;align=center;verticalAlign=top;childLayout=stackLayout;horizontal=1;startSize=26;horizontalStack=0;resizeParent=1;resizeParentMax=0;resizeLast=0;collapsible=1;marginBottom=0;strokeColor=#0F8B8D;fillColor=#FAE5C7;fontColor=#143642;" parent="WIyWlLk6GJQsqaUBKTNV-1" vertex="1"><mxGeometry x="-1427" y="1060" width="170" height="170" as="geometry"/></mxCell><mxCell id="cKhNgOHziQ-rXU9oQnhB-384" value="-NameOfSopressata:String&#10;-CostOfSopressata: double" style="text;strokeColor=#0F8B8D;fillColor=#FAE5C7;align=left;verticalAlign=top;spacingLeft=4;spacingRight=4;overflow=hidden;rotatable=0;points=[[0,0.5],[1,0.5]];portConstraint=eastwest;fontColor=#143642;" parent="cKhNgOHziQ-rXU9oQnhB-383" vertex="1"><mxGeometry y="26" width="170" height="84" as="geometry"/></mxCell><mxCell id="cKhNgOHziQ-rXU9oQnhB-385" value="" style="line;strokeWidth=1;fillColor=none;align=left;verticalAlign=middle;spacingTop=-1;spacingLeft=3;spacingRight=3;rotatable=0;labelPosition=right;points=[];portConstraint=eastwest;labelBackgroundColor=#DAD2D8;strokeColor=#0F8B8D;fontColor=#143642;" parent="cKhNgOHziQ-rXU9oQnhB-383" vertex="1"><mxGeometry y="110" width="170" height="8" as="geometry"/></mxCell><mxCell id="cKhNgOHziQ-rXU9oQnhB-386" value="+getName(): String&#10;+getCost(): double" style="text;strokeColor=#0F8B8D;fillColor=#FAE5C7;align=left;verticalAlign=top;spacingLeft=4;spacingRight=4;overflow=hidden;rotatable=0;points=[[0,0.5],[1,0.5]];portConstraint=eastwest;fontColor=#143642;" parent="cKhNgOHziQ-rXU9oQnhB-383" vertex="1"><mxGeometry y="118" width="170" height="52" as="geometry"/></mxCell><mxCell id="cKhNgOHziQ-rXU9oQnhB-387" style="edgeStyle=orthogonalEdgeStyle;rounded=0;orthogonalLoop=1;jettySize=auto;html=1;exitX=0.5;exitY=0;exitDx=0;exitDy=0;endArrow=block;endFill=0;labelBackgroundColor=#DAD2D8;strokeColor=#A8201A;fontColor=#143642;" parent="WIyWlLk6GJQsqaUBKTNV-1" source="cKhNgOHziQ-rXU9oQnhB-388" edge="1"><mxGeometry relative="1" as="geometry"><mxPoint x="-1317" y="950" as="targetPoint"/></mxGeometry></mxCell><mxCell id="cKhNgOHziQ-rXU9oQnhB-388" value="Ham" style="swimlane;fontStyle=1;align=center;verticalAlign=top;childLayout=stackLayout;horizontal=1;startSize=26;horizontalStack=0;resizeParent=1;resizeParentMax=0;resizeLast=0;collapsible=1;marginBottom=0;strokeColor=#0F8B8D;fillColor=#FAE5C7;fontColor=#143642;" parent="WIyWlLk6GJQsqaUBKTNV-1" vertex="1"><mxGeometry x="-1247" y="1060" width="170" height="171" as="geometry"/></mxCell><mxCell id="cKhNgOHziQ-rXU9oQnhB-389" value="-NameOfHam:String&#10;-CostOfHam: double" style="text;strokeColor=#0F8B8D;fillColor=#FAE5C7;align=left;verticalAlign=top;spacingLeft=4;spacingRight=4;overflow=hidden;rotatable=0;points=[[0,0.5],[1,0.5]];portConstraint=eastwest;fontColor=#143642;" parent="cKhNgOHziQ-rXU9oQnhB-388" vertex="1"><mxGeometry y="26" width="170" height="84" as="geometry"/></mxCell><mxCell id="cKhNgOHziQ-rXU9oQnhB-390" value="" style="line;strokeWidth=1;fillColor=none;align=left;verticalAlign=middle;spacingTop=-1;spacingLeft=3;spacingRight=3;rotatable=0;labelPosition=right;points=[];portConstraint=eastwest;labelBackgroundColor=#DAD2D8;strokeColor=#0F8B8D;fontColor=#143642;" parent="cKhNgOHziQ-rXU9oQnhB-388" vertex="1"><mxGeometry y="110" width="170" height="9" as="geometry"/></mxCell><mxCell id="cKhNgOHziQ-rXU9oQnhB-391" value="+getName(): String&#10;+getCost(): double" style="text;strokeColor=#0F8B8D;fillColor=#FAE5C7;align=left;verticalAlign=top;spacingLeft=4;spacingRight=4;overflow=hidden;rotatable=0;points=[[0,0.5],[1,0.5]];portConstraint=eastwest;fontColor=#143642;" parent="cKhNgOHziQ-rXU9oQnhB-388" vertex="1"><mxGeometry y="119" width="170" height="52" as="geometry"/></mxCell><mxCell id="cKhNgOHziQ-rXU9oQnhB-392" style="edgeStyle=orthogonalEdgeStyle;rounded=0;orthogonalLoop=1;jettySize=auto;html=1;exitX=0.5;exitY=0;exitDx=0;exitDy=0;endArrow=block;endFill=0;labelBackgroundColor=#DAD2D8;strokeColor=#A8201A;fontColor=#143642;" parent="WIyWlLk6GJQsqaUBKTNV-1" source="cKhNgOHziQ-rXU9oQnhB-393" edge="1"><mxGeometry relative="1" as="geometry"><mxPoint x="-1317" y="950" as="targetPoint"/></mxGeometry></mxCell><mxCell id="cKhNgOHziQ-rXU9oQnhB-393" value="Proscuitto" style="swimlane;fontStyle=1;align=center;verticalAlign=top;childLayout=stackLayout;horizontal=1;startSize=26;horizontalStack=0;resizeParent=1;resizeParentMax=0;resizeLast=0;collapsible=1;marginBottom=0;strokeColor=#0F8B8D;fillColor=#FAE5C7;fontColor=#143642;" parent="WIyWlLk6GJQsqaUBKTNV-1" vertex="1"><mxGeometry x="-1067" y="1060" width="170" height="170" as="geometry"/></mxCell><mxCell id="cKhNgOHziQ-rXU9oQnhB-394" value="-NameOfProscuitto:String&#10;-CostOfProscuitto: double" style="text;strokeColor=#0F8B8D;fillColor=#FAE5C7;align=left;verticalAlign=top;spacingLeft=4;spacingRight=4;overflow=hidden;rotatable=0;points=[[0,0.5],[1,0.5]];portConstraint=eastwest;fontColor=#143642;" parent="cKhNgOHziQ-rXU9oQnhB-393" vertex="1"><mxGeometry y="26" width="170" height="84" as="geometry"/></mxCell><mxCell id="cKhNgOHziQ-rXU9oQnhB-395" value="" style="line;strokeWidth=1;fillColor=none;align=left;verticalAlign=middle;spacingTop=-1;spacingLeft=3;spacingRight=3;rotatable=0;labelPosition=right;points=[];portConstraint=eastwest;labelBackgroundColor=#DAD2D8;strokeColor=#0F8B8D;fontColor=#143642;" parent="cKhNgOHziQ-rXU9oQnhB-393" vertex="1"><mxGeometry y="110" width="170" height="8" as="geometry"/></mxCell><mxCell id="cKhNgOHziQ-rXU9oQnhB-396" value="+getName(): String&#10;+getCost(): double" style="text;strokeColor=#0F8B8D;fillColor=#FAE5C7;align=left;verticalAlign=top;spacingLeft=4;spacingRight=4;overflow=hidden;rotatable=0;points=[[0,0.5],[1,0.5]];portConstraint=eastwest;fontColor=#143642;" parent="cKhNgOHziQ-rXU9oQnhB-393" vertex="1"><mxGeometry y="118" width="170" height="52" as="geometry"/></mxCell><mxCell id="cKhNgOHziQ-rXU9oQnhB-397" style="edgeStyle=orthogonalEdgeStyle;rounded=0;orthogonalLoop=1;jettySize=auto;html=1;exitX=0.5;exitY=0;exitDx=0;exitDy=0;entryX=0.5;entryY=1;entryDx=0;entryDy=0;endArrow=block;endFill=0;labelBackgroundColor=#DAD2D8;strokeColor=#A8201A;fontColor=#143642;" parent="WIyWlLk6GJQsqaUBKTNV-1" edge="1"><mxGeometry relative="1" as="geometry"><mxPoint x="3946" y="1060" as="sourcePoint"/><mxPoint x="4116" y="950" as="targetPoint"/><Array as="points"><mxPoint x="3946" y="1010"/><mxPoint x="4116" y="1010"/></Array></mxGeometry></mxCell><mxCell id="cKhNgOHziQ-rXU9oQnhB-398" value="Pita" style="swimlane;fontStyle=1;align=center;verticalAlign=top;childLayout=stackLayout;horizontal=1;startSize=26;horizontalStack=0;resizeParent=1;resizeParentMax=0;resizeLast=0;collapsible=1;marginBottom=0;strokeColor=#0F8B8D;fillColor=#FAE5C7;fontColor=#143642;" parent="WIyWlLk6GJQsqaUBKTNV-1" vertex="1"><mxGeometry x="3860" y="1060" width="170" height="170" as="geometry"/></mxCell><mxCell id="cKhNgOHziQ-rXU9oQnhB-399" value="-NamePitaCracker: String&#10;-CostOfPita:double" style="text;strokeColor=#0F8B8D;fillColor=#FAE5C7;align=left;verticalAlign=top;spacingLeft=4;spacingRight=4;overflow=hidden;rotatable=0;points=[[0,0.5],[1,0.5]];portConstraint=eastwest;fontColor=#143642;" parent="cKhNgOHziQ-rXU9oQnhB-398" vertex="1"><mxGeometry y="26" width="170" height="84" as="geometry"/></mxCell><mxCell id="cKhNgOHziQ-rXU9oQnhB-400" value="" style="line;strokeWidth=1;fillColor=none;align=left;verticalAlign=middle;spacingTop=-1;spacingLeft=3;spacingRight=3;rotatable=0;labelPosition=right;points=[];portConstraint=eastwest;labelBackgroundColor=#DAD2D8;strokeColor=#0F8B8D;fontColor=#143642;" parent="cKhNgOHziQ-rXU9oQnhB-398" vertex="1"><mxGeometry y="110" width="170" height="8" as="geometry"/></mxCell><mxCell id="cKhNgOHziQ-rXU9oQnhB-401" value="+getName(): String&#10;+getCost(): double" style="text;strokeColor=#0F8B8D;fillColor=#FAE5C7;align=left;verticalAlign=top;spacingLeft=4;spacingRight=4;overflow=hidden;rotatable=0;points=[[0,0.5],[1,0.5]];portConstraint=eastwest;fontColor=#143642;" parent="cKhNgOHziQ-rXU9oQnhB-398" vertex="1"><mxGeometry y="118" width="170" height="52" as="geometry"/></mxCell><mxCell id="cKhNgOHziQ-rXU9oQnhB-402" style="edgeStyle=orthogonalEdgeStyle;rounded=0;orthogonalLoop=1;jettySize=auto;html=1;exitX=0.5;exitY=0;exitDx=0;exitDy=0;endArrow=none;endFill=0;labelBackgroundColor=#DAD2D8;strokeColor=#A8201A;fontColor=#143642;" parent="WIyWlLk6GJQsqaUBKTNV-1" edge="1"><mxGeometry relative="1" as="geometry"><mxPoint x="4116" y="960" as="targetPoint"/><mxPoint x="4116" y="1060" as="sourcePoint"/><Array as="points"><mxPoint x="4116" y="1020"/><mxPoint x="4116" y="1020"/></Array></mxGeometry></mxCell><mxCell id="cKhNgOHziQ-rXU9oQnhB-403" value="MiniToast" style="swimlane;fontStyle=1;align=center;verticalAlign=top;childLayout=stackLayout;horizontal=1;startSize=26;horizontalStack=0;resizeParent=1;resizeParentMax=0;resizeLast=0;collapsible=1;marginBottom=0;strokeColor=#0F8B8D;fillColor=#FAE5C7;fontColor=#143642;" parent="WIyWlLk6GJQsqaUBKTNV-1" vertex="1"><mxGeometry x="4040" y="1060" width="170" height="170" as="geometry"/></mxCell><mxCell id="cKhNgOHziQ-rXU9oQnhB-404" value="-NameOfMiniToast: String&#10;-CostOfMiniToast: double" style="text;strokeColor=#0F8B8D;fillColor=#FAE5C7;align=left;verticalAlign=top;spacingLeft=4;spacingRight=4;overflow=hidden;rotatable=0;points=[[0,0.5],[1,0.5]];portConstraint=eastwest;fontColor=#143642;" parent="cKhNgOHziQ-rXU9oQnhB-403" vertex="1"><mxGeometry y="26" width="170" height="84" as="geometry"/></mxCell><mxCell id="cKhNgOHziQ-rXU9oQnhB-405" value="" style="line;strokeWidth=1;fillColor=none;align=left;verticalAlign=middle;spacingTop=-1;spacingLeft=3;spacingRight=3;rotatable=0;labelPosition=right;points=[];portConstraint=eastwest;labelBackgroundColor=#DAD2D8;strokeColor=#0F8B8D;fontColor=#143642;" parent="cKhNgOHziQ-rXU9oQnhB-403" vertex="1"><mxGeometry y="110" width="170" height="8" as="geometry"/></mxCell><mxCell id="cKhNgOHziQ-rXU9oQnhB-406" value="+getName(): String&#10;+getCost(): double" style="text;strokeColor=#0F8B8D;fillColor=#FAE5C7;align=left;verticalAlign=top;spacingLeft=4;spacingRight=4;overflow=hidden;rotatable=0;points=[[0,0.5],[1,0.5]];portConstraint=eastwest;fontColor=#143642;" parent="cKhNgOHziQ-rXU9oQnhB-403" vertex="1"><mxGeometry y="118" width="170" height="52" as="geometry"/></mxCell><mxCell id="cKhNgOHziQ-rXU9oQnhB-407" style="edgeStyle=orthogonalEdgeStyle;rounded=0;orthogonalLoop=1;jettySize=auto;html=1;exitX=0.5;exitY=0;exitDx=0;exitDy=0;endArrow=none;endFill=0;labelBackgroundColor=#DAD2D8;strokeColor=#A8201A;fontColor=#143642;" parent="WIyWlLk6GJQsqaUBKTNV-1" edge="1"><mxGeometry relative="1" as="geometry"><mxPoint x="4116" y="960" as="targetPoint"/><mxPoint x="4306" y="1060" as="sourcePoint"/><Array as="points"><mxPoint x="4306" y="1010"/><mxPoint x="4116" y="1010"/></Array></mxGeometry></mxCell><mxCell id="cKhNgOHziQ-rXU9oQnhB-408" value="Wheat" style="swimlane;fontStyle=1;align=center;verticalAlign=top;childLayout=stackLayout;horizontal=1;startSize=26;horizontalStack=0;resizeParent=1;resizeParentMax=0;resizeLast=0;collapsible=1;marginBottom=0;strokeColor=#0F8B8D;fillColor=#FAE5C7;fontColor=#143642;" parent="WIyWlLk6GJQsqaUBKTNV-1" vertex="1"><mxGeometry x="4220" y="1060" width="170" height="170" as="geometry"/></mxCell><mxCell id="cKhNgOHziQ-rXU9oQnhB-409" value="-NameOfWheatCracker:String&#10;-CostOfMiniToast&#10;" style="text;strokeColor=#0F8B8D;fillColor=#FAE5C7;align=left;verticalAlign=top;spacingLeft=4;spacingRight=4;overflow=hidden;rotatable=0;points=[[0,0.5],[1,0.5]];portConstraint=eastwest;fontColor=#143642;" parent="cKhNgOHziQ-rXU9oQnhB-408" vertex="1"><mxGeometry y="26" width="170" height="84" as="geometry"/></mxCell><mxCell id="cKhNgOHziQ-rXU9oQnhB-410" value="" style="line;strokeWidth=1;fillColor=none;align=left;verticalAlign=middle;spacingTop=-1;spacingLeft=3;spacingRight=3;rotatable=0;labelPosition=right;points=[];portConstraint=eastwest;labelBackgroundColor=#DAD2D8;strokeColor=#0F8B8D;fontColor=#143642;" parent="cKhNgOHziQ-rXU9oQnhB-408" vertex="1"><mxGeometry y="110" width="170" height="8" as="geometry"/></mxCell><mxCell id="cKhNgOHziQ-rXU9oQnhB-411" value="+getName(): String&#10;+getCost(): double" style="text;strokeColor=#0F8B8D;fillColor=#FAE5C7;align=left;verticalAlign=top;spacingLeft=4;spacingRight=4;overflow=hidden;rotatable=0;points=[[0,0.5],[1,0.5]];portConstraint=eastwest;fontColor=#143642;" parent="cKhNgOHziQ-rXU9oQnhB-408" vertex="1"><mxGeometry y="118" width="170" height="52" as="geometry"/></mxCell><mxCell id="7" value="Dips" style="swimlane;fontStyle=3;align=center;verticalAlign=top;childLayout=stackLayout;horizontal=1;startSize=26;horizontalStack=0;resizeParent=1;resizeParentMax=0;resizeLast=0;collapsible=1;marginBottom=0;strokeColor=#0F8B8D;fillColor=#FAE5C7;fontColor=#143642;" parent="WIyWlLk6GJQsqaUBKTNV-1" vertex="1"><mxGeometry x="3151" y="807" width="170" height="160" as="geometry"/></mxCell><mxCell id="9" value="" style="line;strokeWidth=1;fillColor=none;align=left;verticalAlign=middle;spacingTop=-1;spacingLeft=3;spacingRight=3;rotatable=0;labelPosition=right;points=[];portConstraint=eastwest;labelBackgroundColor=#DAD2D8;strokeColor=#0F8B8D;fontColor=#143642;" parent="7" vertex="1"><mxGeometry y="26" width="170" height="8" as="geometry"/></mxCell><mxCell id="10" value="-NameOfDip: String&#10;-QuantityOfDip: int" style="text;strokeColor=#0F8B8D;fillColor=#FAE5C7;align=left;verticalAlign=top;spacingLeft=4;spacingRight=4;overflow=hidden;rotatable=0;points=[[0,0.5],[1,0.5]];portConstraint=eastwest;fontColor=#143642;" parent="7" vertex="1"><mxGeometry y="34" width="170" height="52" as="geometry"/></mxCell><mxCell id="8" value="+getName(): String&#10;+getCost(): double" style="text;strokeColor=#0F8B8D;fillColor=#FAE5C7;align=left;verticalAlign=top;spacingLeft=4;spacingRight=4;overflow=hidden;rotatable=0;points=[[0,0.5],[1,0.5]];portConstraint=eastwest;fontColor=#143642;" parent="7" vertex="1"><mxGeometry y="86" width="170" height="74" as="geometry"/></mxCell><mxCell id="11" style="edgeStyle=orthogonalEdgeStyle;rounded=0;orthogonalLoop=1;jettySize=auto;html=1;exitX=0.5;exitY=0;exitDx=0;exitDy=0;endArrow=block;endFill=0;labelBackgroundColor=#DAD2D8;strokeColor=#A8201A;fontColor=#143642;" parent="WIyWlLk6GJQsqaUBKTNV-1" source="12" edge="1"><mxGeometry relative="1" as="geometry"><mxPoint x="3238" y="968" as="targetPoint"/></mxGeometry></mxCell><mxCell id="12" value="Hummus" style="swimlane;fontStyle=1;align=center;verticalAlign=top;childLayout=stackLayout;horizontal=1;startSize=26;horizontalStack=0;resizeParent=1;resizeParentMax=0;resizeLast=0;collapsible=1;marginBottom=0;strokeColor=#0F8B8D;fillColor=#FAE5C7;fontColor=#143642;" parent="WIyWlLk6GJQsqaUBKTNV-1" vertex="1"><mxGeometry x="2948" y="1078" width="170" height="170" as="geometry"/></mxCell><mxCell id="13" value="-NameOfHummus:String&#10;-CostOfHummus: double" style="text;strokeColor=#0F8B8D;fillColor=#FAE5C7;align=left;verticalAlign=top;spacingLeft=4;spacingRight=4;overflow=hidden;rotatable=0;points=[[0,0.5],[1,0.5]];portConstraint=eastwest;fontColor=#143642;" parent="12" vertex="1"><mxGeometry y="26" width="170" height="84" as="geometry"/></mxCell><mxCell id="14" value="" style="line;strokeWidth=1;fillColor=none;align=left;verticalAlign=middle;spacingTop=-1;spacingLeft=3;spacingRight=3;rotatable=0;labelPosition=right;points=[];portConstraint=eastwest;labelBackgroundColor=#DAD2D8;strokeColor=#0F8B8D;fontColor=#143642;" parent="12" vertex="1"><mxGeometry y="110" width="170" height="8" as="geometry"/></mxCell><mxCell id="15" value="+getName(): String&#10;+getCost(): double" style="text;strokeColor=#0F8B8D;fillColor=#FAE5C7;align=left;verticalAlign=top;spacingLeft=4;spacingRight=4;overflow=hidden;rotatable=0;points=[[0,0.5],[1,0.5]];portConstraint=eastwest;fontColor=#143642;" parent="12" vertex="1"><mxGeometry y="118" width="170" height="52" as="geometry"/></mxCell><mxCell id="16" style="edgeStyle=orthogonalEdgeStyle;rounded=0;orthogonalLoop=1;jettySize=auto;html=1;exitX=0.5;exitY=0;exitDx=0;exitDy=0;endArrow=block;endFill=0;labelBackgroundColor=#DAD2D8;strokeColor=#A8201A;fontColor=#143642;" parent="WIyWlLk6GJQsqaUBKTNV-1" source="17" edge="1"><mxGeometry relative="1" as="geometry"><mxPoint x="3238" y="968" as="targetPoint"/></mxGeometry></mxCell><mxCell id="17" value="Mustard" style="swimlane;fontStyle=1;align=center;verticalAlign=top;childLayout=stackLayout;horizontal=1;startSize=26;horizontalStack=0;resizeParent=1;resizeParentMax=0;resizeLast=0;collapsible=1;marginBottom=0;strokeColor=#0F8B8D;fillColor=#FAE5C7;fontColor=#143642;" parent="WIyWlLk6GJQsqaUBKTNV-1" vertex="1"><mxGeometry x="3128" y="1078" width="170" height="170" as="geometry"/></mxCell><mxCell id="18" value="-NameOfMustard:String&#10;-CostOfMustard: double" style="text;strokeColor=#0F8B8D;fillColor=#FAE5C7;align=left;verticalAlign=top;spacingLeft=4;spacingRight=4;overflow=hidden;rotatable=0;points=[[0,0.5],[1,0.5]];portConstraint=eastwest;fontColor=#143642;" parent="17" vertex="1"><mxGeometry y="26" width="170" height="84" as="geometry"/></mxCell><mxCell id="19" value="" style="line;strokeWidth=1;fillColor=none;align=left;verticalAlign=middle;spacingTop=-1;spacingLeft=3;spacingRight=3;rotatable=0;labelPosition=right;points=[];portConstraint=eastwest;labelBackgroundColor=#DAD2D8;strokeColor=#0F8B8D;fontColor=#143642;" parent="17" vertex="1"><mxGeometry y="110" width="170" height="8" as="geometry"/></mxCell><mxCell id="20" value="+getName(): String&#10;+getCost(): double" style="text;strokeColor=#0F8B8D;fillColor=#FAE5C7;align=left;verticalAlign=top;spacingLeft=4;spacingRight=4;overflow=hidden;rotatable=0;points=[[0,0.5],[1,0.5]];portConstraint=eastwest;fontColor=#143642;" parent="17" vertex="1"><mxGeometry y="118" width="170" height="52" as="geometry"/></mxCell><mxCell id="21" style="edgeStyle=orthogonalEdgeStyle;rounded=0;orthogonalLoop=1;jettySize=auto;html=1;exitX=0.5;exitY=0;exitDx=0;exitDy=0;endArrow=block;endFill=0;labelBackgroundColor=#DAD2D8;strokeColor=#A8201A;fontColor=#143642;" parent="WIyWlLk6GJQsqaUBKTNV-1" source="22" edge="1"><mxGeometry relative="1" as="geometry"><mxPoint x="3238" y="968" as="targetPoint"/></mxGeometry></mxCell><mxCell id="22" value="Ranch" style="swimlane;fontStyle=1;align=center;verticalAlign=top;childLayout=stackLayout;horizontal=1;startSize=26;horizontalStack=0;resizeParent=1;resizeParentMax=0;resizeLast=0;collapsible=1;marginBottom=0;strokeColor=#0F8B8D;fillColor=#FAE5C7;fontColor=#143642;" parent="WIyWlLk6GJQsqaUBKTNV-1" vertex="1"><mxGeometry x="3308" y="1078" width="170" height="170" as="geometry"/></mxCell><mxCell id="23" value="-NameOfRanch:String&#10;-CostOfRanch: double" style="text;strokeColor=#0F8B8D;fillColor=#FAE5C7;align=left;verticalAlign=top;spacingLeft=4;spacingRight=4;overflow=hidden;rotatable=0;points=[[0,0.5],[1,0.5]];portConstraint=eastwest;fontColor=#143642;" parent="22" vertex="1"><mxGeometry y="26" width="170" height="84" as="geometry"/></mxCell><mxCell id="24" value="" style="line;strokeWidth=1;fillColor=none;align=left;verticalAlign=middle;spacingTop=-1;spacingLeft=3;spacingRight=3;rotatable=0;labelPosition=right;points=[];portConstraint=eastwest;labelBackgroundColor=#DAD2D8;strokeColor=#0F8B8D;fontColor=#143642;" parent="22" vertex="1"><mxGeometry y="110" width="170" height="8" as="geometry"/></mxCell><mxCell id="25" value="+getName(): String&#10;+getCost(): double" style="text;strokeColor=#0F8B8D;fillColor=#FAE5C7;align=left;verticalAlign=top;spacingLeft=4;spacingRight=4;overflow=hidden;rotatable=0;points=[[0,0.5],[1,0.5]];portConstraint=eastwest;fontColor=#143642;" parent="22" vertex="1"><mxGeometry y="118" width="170" height="52" as="geometry"/></mxCell><mxCell id="26" style="edgeStyle=orthogonalEdgeStyle;rounded=0;orthogonalLoop=1;jettySize=auto;html=1;exitX=0.5;exitY=0;exitDx=0;exitDy=0;endArrow=block;endFill=0;labelBackgroundColor=#DAD2D8;strokeColor=#A8201A;fontColor=#143642;" parent="WIyWlLk6GJQsqaUBKTNV-1" source="27" edge="1"><mxGeometry relative="1" as="geometry"><mxPoint x="3238" y="968" as="targetPoint"/></mxGeometry></mxCell><mxCell id="27" value="Balsalmic" style="swimlane;fontStyle=1;align=center;verticalAlign=top;childLayout=stackLayout;horizontal=1;startSize=26;horizontalStack=0;resizeParent=1;resizeParentMax=0;resizeLast=0;collapsible=1;marginBottom=0;strokeColor=#0F8B8D;fillColor=#FAE5C7;fontColor=#143642;" parent="WIyWlLk6GJQsqaUBKTNV-1" vertex="1"><mxGeometry x="3488" y="1078" width="170" height="170" as="geometry"/></mxCell><mxCell id="28" value="-NameOfBalsalmic:String&#10;-CostOfBalsalmic: double" style="text;strokeColor=#0F8B8D;fillColor=#FAE5C7;align=left;verticalAlign=top;spacingLeft=4;spacingRight=4;overflow=hidden;rotatable=0;points=[[0,0.5],[1,0.5]];portConstraint=eastwest;fontColor=#143642;" parent="27" vertex="1"><mxGeometry y="26" width="170" height="84" as="geometry"/></mxCell><mxCell id="29" value="" style="line;strokeWidth=1;fillColor=none;align=left;verticalAlign=middle;spacingTop=-1;spacingLeft=3;spacingRight=3;rotatable=0;labelPosition=right;points=[];portConstraint=eastwest;labelBackgroundColor=#DAD2D8;strokeColor=#0F8B8D;fontColor=#143642;" parent="27" vertex="1"><mxGeometry y="110" width="170" height="8" as="geometry"/></mxCell><mxCell id="30" value="+getName(): String&#10;+getCost(): double" style="text;strokeColor=#0F8B8D;fillColor=#FAE5C7;align=left;verticalAlign=top;spacingLeft=4;spacingRight=4;overflow=hidden;rotatable=0;points=[[0,0.5],[1,0.5]];portConstraint=eastwest;fontColor=#143642;" parent="27" vertex="1"><mxGeometry y="118" width="170" height="52" as="geometry"/></mxCell></root></mxGraphModel></diagram></mxfile>